<svg width="707" height="363" viewBox="0 0 707 363" fill="none" xmlns="http://www.w3.org/2000/svg">
<g style="mix-blend-mode:multiply">
<path d="M522.856 203.924L523.287 202.876H522.425V201.2H521.563C521.396 199.826 520.701 199.089 520.271 197.638C520.079 197.002 517.685 196.039 517.685 195.543C517.685 195.434 518.331 195.085 518.116 194.914C517.03 195.015 516.663 194.247 516.823 193.238C515.674 193.199 514.429 191.903 514.668 190.724C513.168 189.87 510.885 187.914 509.928 186.114H509.066V185.276H508.204C508.108 183.926 506.887 182.87 506.049 181.714C503.846 178.68 500.67 176.336 499.585 172.495C499.513 172.254 496.72 169.236 496.568 168.724C496.153 167.335 496.385 165.232 494.413 165.162C494.836 163.369 492.45 162.12 493.121 160.971H492.259C492.418 160.25 491.884 159.986 491.397 159.505C492.338 158.317 490.702 157.153 490.535 156.571C490.303 155.741 490.878 154.592 489.242 154.686C488.859 152.714 487.279 151.55 486.656 149.447C486.568 149.145 485.443 148.485 485.363 148.19C485.26 147.833 485.459 147.29 485.363 146.933C484.908 145.296 483.456 143.775 484.071 141.695H483.209C483.041 141.532 483.336 138.467 483.209 137.714C483.033 136.666 482.059 134.385 482.778 133.105C480.272 129.007 481.014 123.653 480.192 118.857C480.048 118.034 480.312 117.6 480.192 117.181C480.12 116.948 479.402 116.575 479.33 116.343C479.067 115.466 480.711 114.022 478.899 112.99L479.33 112.571C477.279 109.312 477.255 104.865 476.313 101.257C475.763 99.1539 473.544 96.8957 475.021 94.5521C475.084 94.3193 474.382 93.2717 474.159 92.8759C472.834 90.5634 471.876 87.5369 471.142 84.914C470.998 84.4018 470.208 83.3542 469.849 82.3997C469.091 80.3821 467.032 78.0618 467.694 76.533C466.984 75.9743 466.665 75.5708 466.832 74.6473C465.548 74.8336 465.635 73.3824 464.678 72.7616C465.811 72.2029 463.385 70.4413 463.385 70.2473C464.319 69.2773 461.485 66.4914 461.23 65.6378C460.352 62.6656 459.211 60.679 457.352 58.0949C456.306 56.6515 453.72 51.9023 452.396 51.1806C451.717 50.8159 452.052 51.3901 451.318 50.133C448.717 45.6554 444.622 43.0945 442.268 39.0282H441.406C441.071 36.9019 438.677 36.3044 437.959 35.0473C436.953 33.2935 435.158 33.2857 434.359 31.788C434.248 31.5785 434.152 31.3457 434.08 31.0663C432.54 31.3457 432.556 30.0032 431.518 29.5453C431.279 29.4444 431.008 29.3668 430.633 29.3901L430.202 27.7139H428.478V26.8758H427.616C427.728 25.6032 425.709 25.0522 424.599 24.7806V23.9425C421.024 22.9026 418.303 19.0458 415.118 18.4949V17.6568C411.559 17.1291 408.431 14.8554 404.775 14.3044V13.4663C402.11 12.6437 399.436 10.8511 396.587 10.1139V9.27581C395.111 9.67934 394.935 8.81796 394.217 8.43772C391.448 6.98657 388.479 6.57528 385.598 5.92342C383.124 5.36469 379.341 3.50226 377.41 3.82819C376.285 4.01443 375.926 3.44794 375.686 3.40914C370.172 2.44688 364.394 2.10543 359.31 0.475796C357.315 1.18973 356.174 0.219711 354.57 0.475796C353.285 0.68532 352.159 -0.113971 351.553 0.0567526C350.555 0.336118 350.22 -0.160532 349.398 0.0567526C349.159 0.118834 348.776 0.825009 348.536 0.89485C347.499 1.18198 342.758 1.53118 341.21 1.31389C338.904 0.987967 336.885 1.56222 334.315 0.89485C333.07 0.568924 330.7 0.894845 329.143 1.31389C328.569 1.4691 328.425 0.739647 327.85 0.89485C325.592 1.50014 321.386 0.561158 317.939 1.31389C313.557 2.26839 308.458 2.20631 303.286 4.24723H302.424L301.778 3.82819V4.66628C301.163 4.73612 300.421 4.5654 299.839 4.66628C297.564 5.06981 294.276 6.95553 292.081 6.34248C289.671 8.25924 286.216 7.90226 283.462 9.69486L282.17 9.27581C278.906 10.8589 276.112 12.1315 272.689 13.0472C272.178 13.1792 271.101 14.8942 270.534 13.8853C268.172 15.4374 265.386 16.322 262.561 16.8187V17.6568C261.149 17.8197 260.391 18.4949 258.898 18.9139C258.38 19.0614 258.667 19.7443 257.605 20.1711C255.115 21.1799 250.997 22.6465 249.633 24.7806C248.38 24.6409 247.342 25.6808 246.401 26.4568L245.97 26.0377C244.254 27.0465 243.017 29.1185 241.014 29.3901V30.2282H240.152C240.112 31.3457 238.779 32.5563 237.566 32.3235V33.1616C236.744 33.0374 236.146 33.6194 236.273 34.4187H234.98C235.044 35.5517 233.073 36.5838 231.964 36.5139C230.783 38.6247 228.556 40.0991 226.792 42.1711C223.544 45.9813 220.097 48.8991 217.311 52.8568H216.449V54.114H215.588V54.9521C214.63 54.9133 213.393 56.1161 213.433 57.0473H212.14V58.3044H211.278V59.5616C209.53 59.2512 209.051 62.9838 208.692 63.333C208.613 63.4106 208.245 63.2244 208.046 63.333C207.822 63.4572 205.795 66.8872 205.676 67.314C205.596 67.6011 205.724 68.0279 205.676 68.3616H204.814L205.245 68.9902C204.431 70.2706 204.447 70.8371 203.09 71.5045L203.521 71.9235C202.052 73.5919 201.191 75.8113 199.642 77.3711C200.416 77.9221 199.818 77.8445 199.642 78.2092C198.23 81.1736 195.54 83.5715 195.333 86.7997H194.471C194.431 87.9792 193.218 88.9726 193.178 90.1521H192.316C192.149 91.0756 192.468 91.4791 193.178 92.0378V92.4569C193.042 92.9458 191.925 93.9934 191.885 94.1331C191.191 96.6008 190.784 99.0452 189.73 101.257C188.956 102.879 187.528 105.215 188.007 106.704C186.075 109.312 186.77 113.27 184.559 115.924C185.261 117.685 184.775 121.286 183.697 123.047C184.144 124.173 183.992 126.314 182.835 127.238C183.625 127.711 182.277 128.332 183.266 128.914L182.404 129.752C182.739 132.499 181.566 135.502 181.111 138.133C180.106 143.945 180.537 149.378 178.957 154.057C179.22 158.216 178.127 161.996 178.957 165.371L178.095 166.209C178.677 168.118 177.831 170.765 178.31 173.124L177.664 174.8V190.305L178.095 193.867C178.246 195.744 178.917 197.941 178.526 200.152C179.763 202.139 179.459 205.181 179.819 207.276C180.329 210.256 179.882 213.5 180.25 216.914C180.529 219.491 181.814 223.246 181.111 225.714C180.976 226.203 183.458 233.653 183.697 234.514C183.961 235.484 184.344 236.555 184.559 237.447C184.775 238.332 184.248 239.411 185.852 239.333C186.259 242.29 187.097 245.161 188.007 247.924C188.286 248.777 188.677 249.46 188.438 250.648H189.3C189.611 252.231 190.305 253.806 191.454 255.048L191.023 255.886C191.909 256.685 192.564 257.95 192.747 259.028H193.609C193.673 260.425 194.766 261.481 195.333 263.009C195.907 264.546 196.65 265.446 196.626 266.781C196.61 267.448 199.483 270.692 198.78 272.019H199.642C201.805 276.9 204.303 282.123 206.538 286.895C206.961 287.795 207.431 288.269 208.261 288.99L207.83 289.828L209.123 291.086L208.692 291.505C210.496 293.352 212.435 295.858 213.002 297.79C213.185 298.427 215.109 298.504 214.726 299.676H215.588C215.476 300.196 215.859 302.035 216.019 302.19C216.098 302.268 216.457 302.082 216.665 302.19C217.144 302.454 220.248 305.908 220.328 306.171C220.935 308.236 224.949 312.007 225.93 313.714C226.553 314.808 227.814 314.925 228.516 316.229C229.202 317.509 228.971 316.935 229.593 317.276C230.671 317.858 231.022 320.008 232.826 319.79V320.629C234.956 320.931 237.502 324.594 239.074 325.238C240.543 325.836 241.237 327.551 242.738 327.752V328.59C245.028 328.249 244.98 330.662 247.047 330.686V331.524L249.633 332.362V333.2C251.572 333.037 252.745 334.806 254.589 335.714C256.68 336.746 258.643 337.98 260.622 339.067C261.923 339.781 261.324 339.47 261.699 340.114C262.043 340.704 265.73 342.256 266.44 343.467C266.783 344.049 269.584 344.507 270.534 344.933C272.824 345.965 273.726 346.392 276.136 347.029C277.645 347.432 279.504 349.101 281.092 349.124V349.962C284.444 350.637 287.58 352.011 290.358 353.733C291.244 353.198 293.406 354.393 294.667 354.571C295.401 354.68 296.279 354.502 297.037 354.571V355.41C298.091 355.254 299.376 355.13 300.701 355.41C300.844 355.441 301.85 356.217 301.993 356.248C304.14 356.698 305.497 356.853 307.596 357.505C308.561 357.807 309.711 358.063 310.612 358.762C313.725 357.474 317.747 360.702 320.955 359.181L321.817 360.019C326.27 359.499 330.811 361.61 335.177 360.857C336.398 362.603 337.762 360.974 339.486 361.276C339.965 361.362 342.726 362.169 342.934 362.114C345.001 361.563 349.079 362.533 351.122 361.695L352.415 362.533C356.03 361.695 359.613 362.58 362.758 362.533L365.99 362.952H375.471L377.841 362.114C381.265 363.34 386.819 360.586 389.908 361.276C392.022 361.75 396.978 359.22 398.958 360.019C401.839 358.847 406.308 358.273 409.3 358.762C410.162 357.59 412.668 357.699 413.61 357.924L414.472 357.086C414.879 357.87 416.555 356.535 417.058 356.667C418.494 357.055 419.811 356.224 421.583 356.248V355.41C423.099 355.673 423.657 355.192 424.815 354.571C426.092 353.881 430.449 351.902 431.71 351.638C432.213 351.529 432.931 351.747 433.434 351.638C434.048 351.506 435.405 350.094 436.019 349.962C438.214 349.496 437.743 349.465 439.467 348.705C442.204 347.494 444.551 346.059 447.224 344.514C448.621 343.707 450.911 343.28 452.611 342.652C452.827 342.574 453.066 342.504 453.257 342.411C454.582 341.806 455.556 341.232 456.857 340.828C456.952 340.797 457.04 340.758 457.136 340.735C458.445 340.37 459.642 337.422 461.23 337.383V336.545C462.379 336.739 462.667 335.093 463.816 335.287V334.449C466.282 334.131 466.266 331.679 468.341 330.259C469.745 329.297 469.099 329.429 469.849 328.373C470.24 327.814 471.9 326.627 472.004 326.278C472.411 324.904 473.56 323.019 473.728 322.087C473.983 320.698 473.249 319.084 474.59 317.897L474.159 316.64C475.324 315.359 474.997 312.504 474.59 311.192C474.462 310.773 476.106 304.868 475.882 304.068C475.611 303.106 476.593 300.778 476.744 299.459C476.848 298.59 476.673 297.62 476.744 296.735H477.606L477.175 295.687C477.606 292.001 478.157 288.292 478.899 283.954C479.258 281.851 479.937 281.083 479.33 278.925C479.194 278.444 480.008 278.087 479.761 277.249C479.075 276.605 479.019 275.426 478.253 274.945C476.808 274.044 475.795 272.64 474.159 272.43V271.592C469.713 270.669 466.154 268.775 461.876 266.564L459.937 265.097L461.876 264.049C466.441 262.916 471.988 262.342 476.098 261.535C478.508 261.062 478.899 260.487 480.838 259.44C481.046 259.331 481.405 259.517 481.485 259.44C481.668 259.261 481.477 257.717 483.209 258.183V256.925C484.725 256.949 484.988 254.683 486.225 253.783L485.794 253.364C487.111 252.58 486.465 251.571 486.656 250.43C486.68 250.267 487.087 250.151 487.087 250.011C487.087 249.903 486.505 249.724 486.656 249.173C487.015 247.916 486.824 248.079 486.656 247.078C486.146 244.075 487.215 241.134 486.656 238.697C486.154 236.524 487.59 233.529 487.518 231.364H488.38C488.58 231.17 488.189 228.485 488.38 227.802C488.412 227.701 489.689 226.451 489.888 226.335C490.782 225.823 492.426 226.149 492.259 224.659H493.551V223.821C494.82 224.224 496.839 221.943 497.646 221.725C498.715 221.438 500.503 221.733 500.447 220.049L501.955 220.468C502.426 220.181 503.336 218.885 503.679 218.792C505.506 218.28 506.6 216.829 508.635 216.697V215.859C510.319 216.596 511.173 214.369 511.867 214.183C514.309 213.531 515.65 212.98 517.9 212.087C519.393 211.498 518.906 210.171 520.701 210.411V209.573H522.425C522.178 208.929 523.199 208.075 523.287 207.687C523.463 206.919 522.84 205.421 523.718 204.963V204.544L522.856 203.916V203.924ZM446.578 341.581V342.419C443.856 342.753 441.542 344.669 439.036 345.771C438.302 346.097 437.009 346.998 436.881 347.029C436.331 347.176 435.381 346.935 434.727 347.029C434.599 347.044 434 347.766 433.218 347.448V348.705L431.494 348.286L431.71 349.124L429.124 349.543C426.499 351.141 423.498 352.468 420.505 353.314C418.989 353.741 416.02 354.696 414.903 354.152L413.61 354.99L412.748 354.571C410.809 355.712 406.914 355.891 404.991 355.41C403.65 356.814 402.158 356.255 400.25 356.667C396.883 357.388 392.836 357.582 389.908 358.343C388.806 358.63 387.809 358.289 386.891 359.181L384.736 358.343C383.882 359.74 382.502 358.917 381.289 359.181C379.19 359.639 376.843 359.181 374.393 359.6C374.226 359.631 374.01 360.252 373.316 360.019V359.181C373.14 358.971 372.813 359.569 372.67 359.6C371.688 359.786 370.682 359.771 370.084 359.6C369.262 359.367 368.903 360.143 368.145 360.019V359.181C367.267 359.065 366.453 359.453 365.774 360.019C364.912 360.26 364.545 359.468 364.05 359.6C363.835 359.654 363.675 360.244 362.973 360.019V359.181C362.319 358.948 361.984 359.6 361.896 359.6C361.664 359.6 361.92 359.453 361.034 359.6C358.608 359.996 356.214 358.847 354.139 359.181C352.862 359.391 350.755 359.74 349.398 358.762L348.105 359.6C346.653 358.979 343.7 358.979 342.503 359.181C341.202 359.398 335.887 357.59 334.746 357.924C332.016 358.731 330.684 357.117 328.281 357.924C326.486 356.768 324.195 357.078 321.817 356.667C319.016 356.178 314.619 356.488 311.474 355.829C311.115 355.751 309.679 354.649 309.32 354.571C308.466 354.393 307.157 354.75 306.303 354.571C305.401 354.385 303.693 353.625 302.424 353.314C299.065 352.499 296.04 351.786 292.512 351.219C291.515 351.056 290.182 350.373 288.634 349.962C288.395 349.9 288.011 349.194 287.772 349.124C285.729 348.55 283.518 347.207 281.523 346.61V345.771L280.446 346.19L278.722 344.933C278.307 344.654 278.012 345.352 277.86 345.352C277.661 345.352 275.993 343.979 275.059 344.514V343.257C274.444 343.187 273.694 343.358 273.12 343.257C270.797 342.838 268.355 340.238 266.009 339.905V339.067C264.477 339.33 263.543 337.468 262.13 337.39V336.133C260.622 336.312 258.044 335.101 257.821 333.619C254.445 333.076 251.692 329.98 248.34 329.01V328.171C246.217 327.636 244.046 325.129 241.876 323.981V323.143C239.665 323.089 238.747 321.04 236.92 319.79C236.561 319.55 235.579 319.612 235.842 318.533H234.549L234.98 317.905C234.525 317.113 233.983 317.416 233.472 317.276C232.866 317.105 232.538 315.996 232.395 315.809C231.549 314.715 229.761 314.514 229.809 313.086C228.492 313.272 227.894 312.69 228.085 311.409C227.263 311.534 226.665 310.952 226.792 310.152H225.93C225.986 308.864 224.055 306.598 222.914 306.381L222.483 304.286H221.621C222.443 303.005 219.482 301.585 218.604 300.305C218.125 299.599 217.463 297.604 216.665 297.162C215.883 296.727 215.037 295.959 215.157 294.648H214.295C213.122 292.777 212.068 290.837 210.847 288.99L211.278 288.571C209.371 285.785 207.08 283.069 206.969 279.562C205.053 279.414 205.133 276.76 204.814 275.371H203.952C203.92 274.106 202.906 273.175 202.659 272.019H201.797C201.909 270.956 201.853 270.351 200.935 269.714C201.669 269.272 200.672 268.783 200.935 267.828H200.073C200.225 266.99 199.283 266.858 200.073 266.362C198.03 262.117 195.285 258.058 194.04 253.581C192.404 253.674 192.979 252.525 192.747 251.695C192.667 251.4 191.534 250.733 191.454 250.438C191.311 249.926 191.614 248.288 191.454 248.133H190.592V245.2H189.73L190.161 243.314C188.573 242.336 189.132 241.622 188.869 240.381C188.565 238.961 185.676 233.032 185.852 232.419C186.251 231.014 186.522 231.185 184.99 229.905C185.597 229.602 185.205 228.469 184.99 227.809C183.921 224.573 183.418 219.708 183.697 216.076L182.835 214.819C183.33 213.399 183.194 209.208 182.835 208.114C182.356 206.678 183.115 204.273 181.973 202.666L182.835 201.828L181.542 200.571C181.271 199.679 182.843 198.623 181.111 197.638C182.309 196.66 180.385 193.548 180.68 192.609C181.718 189.28 180.84 186.906 181.542 183.809L180.68 181.714C180.976 181.404 181.582 179.34 181.542 179.2C179.922 173.481 182.149 166.326 181.542 160.762L182.404 159.085L181.542 158.876L181.758 158.038H182.404L181.542 156.571L182.404 155.314C182.109 154.577 182.141 152.466 182.404 151.543C182.508 151.186 183.585 150.868 183.266 150.076H182.404L183.266 148.609C182.835 148.338 182.692 147.841 182.835 147.352C183.162 146.242 182.859 145.497 183.266 144C183.905 141.672 183.53 138.257 184.99 135.619C183.53 134.175 186.012 132.173 184.99 131.009C186.826 128.324 185.9 123.847 187.576 120.952L187.145 119.695C187.967 118.779 188.501 117.251 187.576 116.343C188.446 114.884 189.563 112.812 188.869 111.314C190.177 109.537 189.722 106.976 191.454 105.447L191.023 104.19C191.941 103.554 191.997 102.949 191.885 101.885H192.747C193.21 99.4022 193.433 96.5542 195.333 94.5521C194.95 92.8681 196.793 89.8262 197.919 88.2664L197.488 87.4283L198.349 85.9616H199.211L198.78 84.914L199.211 83.8664H200.073V82.6092C201.446 82.3919 202.795 79.0551 203.09 77.5806H203.952C204.088 75.6872 206.027 74.0731 206.107 72.133H206.969C207.719 70.0455 208.549 67.8029 210.416 66.0568L209.985 65.6378L211.709 63.9616L211.278 63.5425C211.278 63.0459 216.825 56.8455 217.742 56.6282V55.7902H219.035V54.533H219.897C220.304 52.981 221.669 52.0963 222.483 50.9711C222.954 50.327 223.975 49.9933 223.776 49.0854L225.069 49.5044C225.14 49.0466 224.957 48.4258 225.069 48.0378C225.252 47.3859 226.84 46.9591 227.223 46.3616C227.934 45.2674 228.963 44.1577 229.378 43.4282C230.288 41.8374 231.349 41.9848 231.964 40.9139C232.427 40.1146 234.837 37.872 235.842 38.1901V37.352H237.997C237.75 36.1182 239.21 36.2501 239.721 35.4663C240.375 34.473 241.341 32.8511 242.738 32.7425V31.9044H244.03C244.102 30.6085 246.536 29.3746 247.909 29.3901V28.552L250.064 28.133C249.944 27.5587 250.136 26.6197 250.71 26.4568C252.131 26.061 253.256 24.9048 253.727 24.7806C255.826 24.2219 258.052 22.8095 260.191 21.8473C260.798 21.5756 261.229 21.5368 261.484 21.4282C263.327 20.6134 265.259 18.4638 267.086 18.0758C267.709 17.9439 268.674 18.231 269.241 18.0758C269.544 17.9982 270.223 16.904 270.534 16.8187C272.138 16.3686 274.061 16.4462 275.274 15.1425C275.993 16.2134 277.389 14.0095 277.86 13.8853C278.866 13.6137 280.095 14.3898 280.877 13.0472L281.739 13.4663L282.385 12.2092C283.215 12.5118 283.877 11.6659 284.324 11.7901C286.711 12.4264 285.777 11.2779 287.341 10.952C288.833 10.6416 290.717 10.7037 292.081 9.69486L293.59 10.1139C293.518 8.5774 294.571 9.043 295.529 8.85676C295.944 8.7714 296.088 8.15835 297.253 8.85676C300.892 6.62184 304.308 7.18057 308.027 5.92342L308.673 6.34248V5.50438L309.751 5.92342C311.043 4.77492 312.56 4.90685 314.06 4.66628C316.853 4.2162 321.482 4.44124 325.265 3.82819C326.677 3.60314 328.505 4.06099 329.574 3.82819C332.599 3.16857 337.3 4.38692 340.779 3.82819C345.28 3.09873 349.917 4.65852 354.139 2.99009L355.431 3.82819C356.198 2.74177 357.578 3.77386 358.017 3.82819C359.166 3.96787 360.499 3.7273 361.68 3.82819V4.66628L362.758 4.24723C363.516 4.58868 370.499 6.03983 370.946 5.92342C373.26 5.30261 375.032 7.06417 376.117 6.76152C377.274 6.4356 377.115 7.08745 378.272 6.76152C379.66 6.37351 386.404 10.4709 388.184 9.27581C389.062 10.4166 390.714 10.1605 392.062 10.533C392.374 10.6183 393.052 11.7125 393.355 11.7901C397.745 12.9696 400.945 15.8719 405.637 16.8187V17.6568C406.89 17.6878 408.087 19.7753 409.3 18.4949C410.657 19.6666 412.365 20.1245 414.041 20.5901C414.264 20.6522 414.416 21.2342 415.118 21.0092L414.687 21.8473L417.273 22.2663V23.5235C418.279 22.7164 418.382 23.8261 419.212 24.3615C419.388 24.4779 420.33 24.6642 420.505 24.7806C422.828 26.2783 423.897 28.6917 426.754 29.3901V30.2282C427.472 30.236 428.103 30.7947 428.741 31.2603C427.823 31.8268 426.89 32.3545 425.892 32.7425V33.5806C422.349 34.4575 420.617 37.7168 416.842 38.6092C416.954 40.231 413.658 40.6889 412.963 41.752C411.95 43.2963 409.181 45.9348 408.008 46.5711C406.212 47.5411 405.23 49.714 403.698 50.7616C401.272 52.4222 397.76 57.1404 395.079 57.8854C394.528 58.0406 393.635 60.423 392.924 60.8187C391.607 61.5482 391.807 62.2932 390.985 63.5425C390.418 64.4039 388.806 64.1944 389.261 65.8473H388.399C386.612 71.8614 381.352 76.308 378.918 82.6092C377.107 82.6403 377.482 83.9052 377.194 84.914C377.091 85.2865 375.782 85.9228 376.333 87.2188H375.471C375.08 88.7708 373.14 90.9436 374.178 92.4569C372.749 94.2805 372.151 96.205 371.592 98.3235C370.866 101.078 368.368 104.004 368.575 106.704C366.644 109.312 367.338 113.27 365.128 115.924C364.992 116.405 365.806 116.762 365.559 117.6C364.593 120.875 364.37 125.957 362.542 129.752C363.324 130.707 362.502 133.136 362.111 134.362C361.026 137.768 361.066 143.022 359.956 146.933C359.621 148.105 360.978 152.218 359.095 154.057C359.358 158.216 358.265 161.996 359.095 165.371L358.233 166.209C358.815 168.118 357.969 170.765 358.448 173.124L357.802 174.8V190.305L358.233 193.867C358.384 195.744 359.055 197.941 358.664 200.152C360.778 206.678 359.749 212.506 360.818 219.428C361.098 221.229 361.672 224.224 361.249 225.714C361.177 225.955 362.287 229.408 362.542 230.324C363.069 232.248 364.274 235.034 364.697 237.028C364.92 238.061 364.226 239.388 365.99 239.333C366.357 241.242 366.772 243.128 367.283 244.99C367.426 245.518 367.65 245.433 367.283 246.457H368.145C368.208 248.746 369.342 250.942 370.299 252.952C371.057 254.551 371.863 256.305 372.885 257.981C374.489 260.604 375.455 261.574 376.333 264.686C376.524 265.368 377.234 264.949 377.194 266.781C377.179 267.448 380.052 270.692 379.349 272.019H380.211C380.483 273.664 382.103 274.789 381.935 276.628H382.797C384.313 280.734 386.117 285.584 389.261 288.99L388.83 289.409C389.66 290.108 390.243 291.093 390.123 292.133H390.985C391.528 294.477 394.225 296.029 394.433 298.419H395.725C395.957 299.304 396.547 300.157 397.018 301.143C397.585 302.33 399.309 303.106 400.466 304.495C400.538 304.581 400.394 304.829 400.466 304.914C402.692 307.584 406.675 311.347 407.792 313.295C408.558 314.638 410.936 314.933 410.809 316.857C412.429 316.609 412.836 318.471 413.61 318.952C414.512 319.511 417.273 320.512 417.704 321.257C418.566 322.724 420.457 322.995 421.152 324.19C421.766 325.246 429.284 329.312 430.633 329.848V330.686C432.141 330.282 432.484 331.454 433.649 331.524V332.362C435.349 331.632 436.163 333.836 436.881 334.038C438.709 334.55 440.129 335.35 441.837 335.714V336.552C444.622 337.259 447.216 339.23 449.674 340.657C448.318 341.154 447.096 341.527 446.578 341.581Z" fill="black"/>
<path d="M346.158 204.755C345.767 204.149 343.692 202.667 343.572 202.24C343.404 201.643 343.588 200.874 343.141 200.145C341.864 198.065 339.254 196.575 338.4 194.488H337.108C334.865 191.298 331.872 188.908 330.212 185.059C329.813 184.136 328.137 182.545 327.196 181.288C326.876 180.861 323.852 175.801 323.748 175.421C322.95 172.589 321.051 170.168 320.301 167.459C319.774 165.542 319.207 165.364 318.577 163.688C318.345 163.067 317.324 161.321 317.284 161.174C316.933 159.947 316.901 158.83 315.56 157.821V157.402C316.629 156.277 315.273 154.026 314.698 152.793C314.124 151.574 313.166 150.333 312.543 149.021C311.985 147.857 311.626 146.949 311.25 145.669C311.211 145.521 310.061 144.458 309.958 143.993C309.846 143.504 310.069 142.805 309.958 142.316C309.846 141.812 308.777 140.143 308.665 139.383C308.162 136.062 308.808 131.879 308.234 129.326C307.659 126.788 306.334 123.32 306.079 120.945C305.904 119.284 306.207 117.399 306.079 115.707H304.786C304.746 114.318 305.927 113.604 304.355 112.564L304.786 112.145C303.749 111.012 303.573 109.056 303.062 107.535C302.193 104.943 302.081 102.204 301.339 99.5734C301.299 99.4338 300.15 98.3551 300.046 97.8972C299.814 96.8419 300.277 95.1812 300.046 94.1258C299.942 93.668 298.793 92.5893 298.753 92.4496C298.37 91.0838 298.442 89.33 297.029 88.2591L297.46 87.8401C295.864 85.6129 294.571 82.9357 294.012 80.2972L292.72 79.6687C292.991 78.6133 291.754 78.0235 292.72 77.3639C292.009 76.8052 291.69 76.4016 291.858 75.4782C290.23 75.4394 289.974 72.9328 289.272 71.7067H288.41C288.514 68.7501 285.29 66.6394 285.393 63.7448H284.531C284.284 61.6108 282.313 59.7949 281.084 58.0877C278.746 54.8517 275.952 51.2432 272.896 49.0781V48.24H272.034C271.387 45.9741 268.913 44.6393 267.724 43.0019C266.432 41.2249 261.843 38.1518 261.26 37.1353C260.422 35.6686 258.443 36.2196 258.243 34.4115C257.206 34.5667 256.416 34.2097 256.52 33.1543C255.394 33.3638 254.333 32.5568 254.365 31.4781C251.875 31.3307 251.189 28.7621 248.331 28.5448V27.7067C247.294 27.3497 246.328 26.9074 245.387 26.4185C242.17 24.7578 239.353 22.5695 235.618 21.421C233.615 20.8001 231.564 20.4199 229.585 19.7448C227.542 19.0464 225.587 17.8901 223.552 17.2305C222.219 16.7959 220.854 16.276 219.458 15.9733V15.1352L216.441 14.7162V13.8781C212.547 13.0322 208.413 12.7839 204.59 11.7828C203.592 11.519 203.624 11.0456 202.435 11.3638C202.188 11.4259 198.333 10.6033 197.695 10.5257C192.643 9.9049 186.594 10.0058 182.18 9.26857C180.465 8.98144 177.041 8.98144 175.716 9.26857C174.272 9.58673 172.109 8.68656 170.545 9.26857C169.284 9.74194 169.34 10.4947 167.959 10.1067C167.528 9.99026 162.644 11.0224 162.357 10.9448C159.946 10.3007 157.712 11.3793 155.03 10.9448C151.87 10.4326 147.018 12.0855 143.826 11.3638C143.291 11.2396 134.967 12.7684 133.483 13.04C129.604 13.7462 125.806 15.0654 121.847 15.9733C118.902 16.6485 115.894 17.6806 112.797 18.4876C112.246 18.6273 112.342 18.8446 111.289 18.4876V19.3257C110.036 18.8756 109.23 19.9698 108.488 20.1638C106.684 20.6449 104.33 20.6605 102.885 22.2591L101.592 21.84C94.7451 24.6957 88.6718 28.2964 81.5531 29.8019C80.7391 31.3928 77.5788 32.7353 75.7353 33.5734C71.2821 35.591 67.7866 38.6485 63.4532 39.8591V40.6972C62.1843 40.7282 60.8276 42.6527 59.7901 43.2115C58.6249 43.8478 58.4014 45.5007 56.5579 45.3067V46.1448H55.696C55.7998 47.2002 55.0097 47.5572 53.9722 47.4019C54.0441 48.5427 52.025 49.5826 50.9556 49.4972C47.3882 54.1766 41.7619 58.7783 38.458 63.3258H37.5961V64.1639C35.984 64.3656 36.1516 65.9409 34.7949 66.6782C34.1963 67.0041 32.7439 68.5251 32.8556 69.1925H31.5627V70.4496H30.7008C29.8629 71.73 28.3944 74.547 27.4687 75.0591C27.0058 75.3152 24.6755 80.2119 24.2365 81.1353C22.425 84.9378 19.1689 88.4687 17.7723 92.6591H16.9104C16.5034 94.1646 15.2025 95.5382 15.1866 97.2687H14.3247C14.0852 98.6189 13.2872 99.9071 12.1699 100.831C12.7365 101.506 13.2792 102.46 13.0318 103.345C12.968 103.578 12.2417 103.95 12.1699 104.183C11.5314 106.27 11.3319 108.086 10.877 109.631C10.7893 109.933 9.67996 110.585 9.58419 110.888C8.3073 115.086 7.71674 118.989 6.56753 123.04C6.50369 123.273 5.76947 123.645 5.70563 123.878C5.26669 125.438 5.62583 128.464 5.27468 130.164C4.90757 131.918 5.1789 134.044 3.98182 135.193C3.89403 138.475 3.07204 142.479 2.25802 146.088C1.72332 148.462 2.40965 151.481 1.39611 154.05C2.19417 157.976 -0.23991 162.656 0.534207 167.04C0.813528 168.616 0.486317 172.503 0.103249 174.164C-0.15213 175.266 0.326705 177.454 0.103249 178.774C-0.383567 181.606 1.03698 185.044 0.534207 187.993C0.262867 189.591 0.877373 191.454 0.534207 193.44C0.095275 196.001 1.22053 201.402 1.82706 204.335C2.12234 205.779 2.91242 208.464 2.68896 209.783C2.46551 211.095 3.03213 211.7 2.68896 213.135C2.44157 214.175 3.75038 218.901 3.98182 220.259C4.42873 222.906 4.24518 225.715 4.84372 228.64C5.48217 231.729 6.58349 234.841 7.42944 237.859C7.47732 238.038 8.29134 239.039 8.29134 239.116C8.29134 239.256 7.86038 239.396 7.86038 239.536C7.86038 239.792 8.93777 241.39 9.58419 241.002C9.71986 243.338 11.1564 245.208 10.877 247.707H11.739C11.5714 250.501 13.9097 252.611 14.3247 255.25H15.1866C15.6255 258.199 18.0436 260.441 19.4961 263.421C20.7331 265.959 22.4489 269.016 22.9437 272.012H23.8056C24.883 274.479 26.4153 276.575 27.2532 279.345C27.3171 279.539 28.5381 280.68 28.977 281.859C29.5995 283.52 30.4056 284.521 31.1318 286.05C31.8899 287.641 33.8292 289.123 33.7175 291.288H34.5794C34.5954 292.499 36.2873 293.43 36.3032 294.64H37.1651C37.4285 295.96 37.7477 296.658 38.6735 297.155C40.3175 298.047 40.078 300.049 41.6901 300.926C43.1266 301.702 44.3716 304.193 45.3532 305.326C46.4465 306.591 48.5295 307.639 48.3699 309.307C51.9931 311.41 55.0576 316.904 59.3591 318.107C59.7103 318.208 63.7165 321.847 64.5306 322.298C66.3182 323.283 69.4865 325.262 70.3484 326.488C71.3859 326.333 72.1759 326.69 72.0722 327.745L74.6579 328.164V329.002C76.3498 328.273 77.1798 330.477 77.8901 330.678C79.4383 331.113 80.8908 331.478 82.4151 331.936C82.3512 333.325 84.889 333.689 86.0781 334.45C86.7246 334.869 90.5154 337.802 90.8186 337.802C90.9304 337.802 91.2895 337.174 91.465 337.383C91.4092 339.098 92.7659 338.423 93.8353 338.64C95.3117 338.935 97.0036 339.882 98.5758 340.317C101.265 341.054 103.252 341.892 105.902 342.831C107.482 343.39 109.429 344.189 110.642 344.507C114.058 345.392 118.04 347.479 121.416 346.602C122.462 348.061 124.481 347.239 126.157 347.44C127.649 347.619 134.472 349.753 135.207 349.536C137.641 348.814 140.258 350.226 141.24 349.955C142.014 349.737 148.766 349.706 150.29 349.955C153.107 350.413 159.093 350.863 161.926 350.374C163.019 350.188 168.007 350.614 168.821 350.793C170.92 351.251 172.444 350.226 173.992 349.955C175.07 349.761 175.956 349.916 176.578 350.793C180.409 349.411 184.774 350.878 188.214 349.955C200.201 350.591 212.227 348.216 223.983 346.183C227.686 345.547 231.133 345.64 234.326 344.926C238.467 343.995 242.953 343.778 247.254 343.25C250.095 342.901 252.258 342.513 255.011 341.993C257.23 341.574 259.48 340.371 261.906 341.155C262.154 341.031 262.409 340.93 262.657 340.813C263.75 340.324 264.867 339.936 266.001 339.626C268.498 338.943 271.068 338.547 273.542 337.802C275.865 337.104 278.458 335.792 280.868 335.288C282.919 334.861 284.954 334.659 286.902 334.031C290.022 333.022 293.27 329.848 296.383 328.164C297.181 327.73 299.902 324.975 300.477 324.183C301.77 322.398 302.304 322.973 303.062 320.412C303.134 320.179 303.852 319.807 303.924 319.574C304.435 317.851 303.996 315.989 305.217 314.545L304.786 313.288L305.648 312.031C305.097 308.725 305.56 304.17 306.079 301.136C306.414 299.188 305.816 296.254 307.372 294.85C306.446 291.505 307.579 287.028 308.234 283.536C308.505 282.092 308.441 281.332 308.234 280.183C308.05 279.198 308.449 277.762 308.234 276.831C308.202 276.683 307.891 276.59 307.803 276.412C307.739 276.28 307.859 276.086 307.803 275.993C307.5 275.504 305.153 273.284 304.571 272.85C301.658 270.646 297.779 269.645 294.443 268.24V267.402C293.629 267.317 292.265 266.595 291.642 266.145C290.98 265.664 290.15 264.748 289.703 264.05L291.642 263.631C295.393 263.32 299.208 262.901 302.847 262.374C303.517 262.281 304.387 262.506 305.002 262.374C306.119 262.141 307.947 260.333 309.096 260.278V259.44C309.918 259.557 310.516 258.982 310.389 258.183H311.25L313.405 253.783C312.783 252.914 313.629 252.394 313.405 251.688C312.982 250.345 313.525 250.439 313.405 250.012C313.174 249.181 312.288 245.262 312.543 244.145C312.902 242.585 312.248 240.661 312.543 238.697C312.823 236.851 312.511 234.895 312.974 232.831C313.006 232.691 313.804 231.713 313.836 231.574C314.044 230.627 313.405 228.415 314.914 228.012C315.281 227.911 315.839 228.113 316.206 228.012C316.629 227.903 317.986 226.832 318.361 226.755C320.955 226.211 324.299 226.483 326.98 225.916C327.14 225.885 328.082 225.125 328.273 225.078C329.43 224.768 330.994 224.551 332.152 224.24C332.654 224.108 333.732 223.022 333.875 222.983C335.679 222.502 337.355 221.858 339.047 220.888C340.364 220.127 343.532 218.118 344.434 216.907C344.522 216.791 345.272 215.727 345.296 215.65C345.375 215.37 345.192 215.013 345.296 214.812C345.567 214.276 346.517 213.042 346.589 212.716C347.083 210.559 346.357 206.834 346.158 204.755ZM254.58 338.64C251.268 340.619 247.27 340.728 243.807 340.317C242.601 341.108 240.167 342.039 239.066 341.155C238.252 341.892 237.749 341.954 236.911 341.574C234.884 342.497 231.285 342.908 229.154 342.412C228.38 343.553 226.289 343.584 225.276 342.831C223.225 344.53 219.777 344.065 217.088 344.507C214.933 344.864 212.81 345.376 211.054 346.183C208.516 345.167 206.322 347.471 203.728 346.183L202.435 347.021C201.238 346.587 199.259 346.874 198.126 347.44L197.264 346.602C194.423 348.566 190.728 346.245 187.783 347.859L186.921 347.021C184.08 348.255 179.14 346.789 176.147 347.44C172.819 348.162 164.216 348.092 160.202 347.44C158.749 347.208 157.903 348.123 156.754 347.859C153.817 347.192 150.841 347.386 148.566 347.021C145.717 346.564 142.525 346.843 139.516 346.602C131.575 345.966 124.992 344.073 116.676 343.669C112.438 341.907 107.761 340.549 103.747 338.64C102.478 339.354 101.712 337.88 100.084 338.221V337.383C97.9852 337.484 96.2055 336.669 94.2662 336.126C93.9789 336.049 92.1514 334.69 91.6805 334.45C89.6295 333.41 87.4588 332.952 86.5091 331.098C85.0407 331.152 84.0351 330.065 82.846 329.84V329.002C81.9921 329.949 80.7232 327.924 80.0448 327.745C79.574 327.621 78.7919 327.869 78.321 327.745C77.0361 327.404 74.4824 323.958 72.2877 324.393C71.1864 322.631 68.8082 321.824 66.9008 320.621V319.783C65.5521 319.9 64.762 319.077 64.3151 318.317C63.6766 317.215 60.6839 317.215 60.8675 315.593H59.5746C59.4549 315.5 60.4126 314.84 59.3591 314.336C58.4573 315.174 57.8747 313.917 57.4198 313.288C56.6218 312.186 54.7623 312.008 54.8341 310.564C52.9268 311.038 53.4056 308.779 51.8175 308.888V308.05H50.9556C51.171 306.366 49.8542 306.42 49.2318 305.326C48.713 304.426 47.077 304.015 47.5079 302.602H46.6461L47.077 301.974C45.3612 300.833 43.1825 298.901 42.3365 296.945C41.8178 295.742 39.5034 295.315 39.7508 293.383H38.8889C37.9552 291.715 36.6224 289.837 35.4413 288.145L35.8723 287.726C34.1245 285.119 31.7064 282.527 31.5627 279.136C30.2619 279.306 30.3736 277.878 29.408 277.25C30.23 275.162 26.12 272.245 25.5294 270.126C23.9253 264.415 19.8233 259.821 18.2032 254.412C16.9423 254.528 16.4316 252.968 16.4794 251.897H15.6175L15.1866 248.964H14.3247V246.45H13.4627L13.8937 244.564C13.6543 244.199 12.6727 243.571 12.6009 243.307C11.8108 240.529 11.324 237.526 9.58419 234.926L10.0151 233.25C8.04393 231.806 8.39508 229.478 7.86038 227.383C7.21395 224.846 6.46378 221.454 6.99848 219.002L6.13657 217.745C6.44782 213.834 5.92111 208.456 4.41277 203.916L4.84372 202.659L3.98182 201.402C5.03525 200.688 4.06162 200.06 3.98182 199.726C3.15982 196.28 3.84615 191.943 3.98182 188.412L3.11991 187.154C3.26356 186.037 3.77433 185.098 3.55087 183.802C3.3753 182.77 2.83261 176.251 3.11991 175.002C3.48702 173.427 3.17578 171.169 3.55087 169.135C3.99778 166.707 3.56683 164.278 3.98182 162.012C4.26912 160.436 3.28751 158.419 4.84372 157.402C3.79028 153.561 5.62583 148.711 5.27468 144.412L6.13657 143.154C4.98737 141.719 6.95059 139.872 6.13657 138.335H6.99848C7.15809 138.18 6.87079 135.472 6.99848 134.773C7.0304 134.618 7.38953 134.517 7.42944 134.354C8.45893 130.335 8.13971 126.098 9.58419 121.783C9.64804 121.581 10.1748 121.496 10.0151 120.945C9.54428 119.292 11.2681 116.607 11.739 114.659C12.2737 112.44 13.4707 110.911 13.8937 108.793C14.205 107.248 14.0533 105.797 15.6175 104.602L15.1866 103.764C16.3916 102.266 17.7803 99.4881 17.7723 97.8972C17.7723 96.741 23.8854 89.3844 23.8056 87.2115H24.6675C25.3139 83.9445 28.1311 81.6009 28.977 78.4115H29.8389C29.6075 77.294 30.5811 76.6577 31.1318 75.6877L30.7008 75.0591H31.5627C31.6026 74.1745 32.257 73.1036 33.0711 72.5448C34.5395 71.536 35.6967 69.5106 37.3806 68.3544C38.841 67.3533 39.6231 65.6693 40.8282 65.002C41.1953 64.8002 42.7515 62.6429 42.7675 62.0686H44.0604C43.5496 60.3536 45.6485 60.2217 46.2151 59.3448C47.5798 57.2418 50.1575 55.294 50.9556 53.8972C51.4184 53.0979 53.8286 50.8552 54.8341 51.1734V50.3353C55.4247 50.2422 56.2706 50.4672 56.7734 50.3353C57.5316 50.1335 61.1548 45.5318 61.9448 45.3067C62.2242 45.2291 62.679 45.3533 63.0222 45.3067C62.9025 44.5074 63.4931 43.9254 64.3151 44.0496V43.2115C65.6478 43.7935 67.0285 41.6827 67.5472 41.5353C69.4626 40.9998 72.5431 37.337 74.4424 37.7638C76.0306 35.948 79.3186 35.591 81.3377 34.4115C81.9123 34.0778 82.4869 33.0689 83.0615 32.7353C84.5539 31.8739 87.1874 31.5092 88.8793 31.0591V30.221C90.9543 29.7243 92.6861 29.0337 94.6972 28.1257C96.9716 27.0936 99.1823 25.8287 101.808 25.6114V24.7733L102.885 24.3543L105.04 24.7733C106.373 23.136 107.442 23.7956 109.35 22.6781C109.98 22.3056 111.017 22.4143 111.504 21.84L113.013 22.2591V21.421C114.537 20.5673 116.46 20.9088 117.969 20.5829C118.623 20.4432 120.61 19.124 121.416 18.9067C122.964 18.4954 125.079 18.9299 126.157 17.6495C127.729 18.7515 130.753 16.2217 132.19 15.9733C134.049 15.6552 135.614 15.8957 136.93 15.5543C138.846 15.0576 141.168 15.5 142.533 15.1352C142.772 15.0732 143.155 14.3592 143.395 14.2971C146.204 13.5444 151.064 14.5532 154.169 13.8781C157.959 13.0555 163.562 13.8005 167.959 13.04C170.249 12.6442 172.939 13.5754 175.285 11.7828C177.568 12.6753 180.481 11.9458 183.042 12.2019C186.338 12.5356 189.977 14.0488 193.385 13.04C194.311 12.7684 196.665 14.2816 198.126 13.8781C198.956 13.6453 199.466 14.5377 200.28 14.2971C202.491 13.6453 203.688 15.3836 204.59 15.1352C206.489 14.6075 206.761 15.7483 207.607 15.9733C209.275 16.4234 211.429 15.9966 213.209 16.3924C213.975 16.5631 215.866 17.2926 216.657 17.6495C220.639 19.4654 224.478 21.0717 228.723 22.2591C229.394 22.4453 230.902 24.7811 232.602 23.5162C234.294 24.8742 236.744 25.3243 238.42 25.6114V26.4495C239.952 26.9928 241.428 27.73 242.889 28.5448C242.322 28.9638 241.708 29.2898 241.005 29.3829V30.221H240.143C240.104 31.3384 238.771 32.549 237.558 32.3162V33.1543C236.736 33.0301 236.137 33.6122 236.265 34.4115H234.972C235.036 35.5444 233.065 36.5765 231.955 36.5067C230.774 38.6175 228.548 40.0919 226.784 42.1638C223.536 45.9741 220.088 48.8919 217.303 52.8496H216.441V54.1067H215.579V54.9448C214.621 54.906 213.385 56.1088 213.424 57.0401H212.132V58.2972H211.27V59.5543C209.522 59.2439 209.043 62.9766 208.684 63.3258C208.604 63.4034 208.237 63.2171 208.038 63.3258C207.814 63.4499 205.787 66.8799 205.667 67.3067C205.587 67.5939 205.715 68.0207 205.667 68.3544H204.805L205.236 68.9829C204.422 70.2633 204.438 70.8298 203.082 71.4972L203.513 71.9163C202.044 73.5847 201.182 75.8041 199.634 77.3639C200.408 77.9149 199.81 77.8373 199.634 78.202C198.221 81.1664 195.532 83.5642 195.324 86.7925H194.463C194.423 87.972 193.21 88.9653 193.17 90.1449H192.308C192.14 91.0683 192.459 91.4718 193.17 92.0306V92.4496C193.034 92.9385 191.917 93.9861 191.877 94.1258C191.183 96.5936 190.776 99.038 189.722 101.25C188.948 102.872 187.519 105.207 187.998 106.697C186.067 109.305 186.761 113.262 184.551 115.916C185.253 117.678 184.766 121.279 183.689 123.04C184.136 124.165 183.984 126.307 182.827 127.231C183.617 127.704 182.268 128.325 183.258 128.907L182.396 129.745C182.731 132.492 181.558 135.495 181.103 138.126C180.097 143.938 180.528 149.37 178.948 154.05C179.212 158.209 178.118 161.988 178.948 165.364L178.086 166.202C178.669 168.111 177.823 170.757 178.302 173.116L177.655 174.793V190.297L178.086 193.859C178.238 195.737 178.908 197.933 178.517 200.145C179.754 202.132 179.451 205.174 179.81 207.269C180.321 210.249 179.874 213.492 180.241 216.907C180.52 219.483 181.805 223.239 181.103 225.707C180.967 226.196 183.449 233.646 183.689 234.507C183.952 235.477 184.335 236.548 184.551 237.44C184.766 238.325 184.239 239.404 185.843 239.326C186.251 242.283 187.088 245.154 187.998 247.916C188.278 248.77 188.669 249.453 188.429 250.64H189.291C189.602 252.223 190.297 253.799 191.446 255.04L191.015 255.878C191.901 256.678 192.555 257.943 192.739 259.021H193.601C193.664 260.418 194.758 261.473 195.324 263.002C195.899 264.539 196.641 265.439 196.617 266.774C196.601 267.441 199.474 270.685 198.772 272.012H199.634C201.797 276.893 204.295 282.115 206.529 286.888C206.952 287.788 207.423 288.262 208.253 288.983L207.822 289.821L209.115 291.078L208.684 291.497C210.488 293.344 212.427 295.851 212.993 297.783C213.177 298.42 215.1 298.497 214.717 299.669H215.579C215.467 300.189 215.85 302.028 216.01 302.183C216.09 302.261 216.449 302.075 216.657 302.183C217.135 302.447 220.24 305.9 220.32 306.164C220.926 308.228 224.94 312 225.922 313.707C226.545 314.801 227.805 314.918 228.508 316.221C229.194 317.502 228.963 316.928 229.585 317.269C230.662 317.851 231.014 320.001 232.817 319.783V320.621C234.948 320.924 237.494 324.587 239.066 325.231C240.534 325.828 241.229 327.543 242.729 327.745V328.583C245.02 328.242 244.972 330.655 247.039 330.678V331.517L249.624 332.355V333.193C251.564 333.03 252.737 334.799 254.58 335.707C256.145 336.475 257.637 337.352 259.113 338.206C257.605 338.547 256.097 338.757 254.58 338.64Z" fill="black"/>
<path d="M706.439 213.141C706.383 212.792 705.76 210.705 705.577 210.208C704.228 206.654 701.435 203.635 700.405 200.151C700.301 199.786 698.785 198.832 698.681 198.475C697.867 195.596 695.266 192.81 693.51 190.094C692.209 188.076 691.547 185.112 690.493 183.389C688.059 179.408 686.248 177.266 684.891 172.494C684.684 171.749 683.239 170.647 683.167 170.398C682.042 166.417 679.791 162.817 678.858 158.875H677.996C678.012 158.215 677.597 157.524 677.134 156.989C678.522 155.84 676.823 154.909 676.703 154.475C676.575 154.017 676.831 153.256 676.703 152.798C676.647 152.612 674.867 150.455 674.548 149.865C673.798 148.484 673.646 147.467 673.255 146.094C673.175 145.799 672.042 145.131 671.962 144.836C671.787 144.223 671.803 143.905 671.531 143.16C670.917 141.469 671.037 139.831 670.67 138.551C670.606 138.318 669.872 137.945 669.808 137.713C669.528 136.719 669.903 134.383 669.808 133.103C669.656 131.116 668.97 128.711 668.515 126.817C668.275 125.824 667.525 121.688 667.653 120.951C668.028 118.832 668.132 115.014 666.791 112.57C667.932 111.142 666.065 109.109 666.36 107.332H665.498C665.801 105.811 664.924 104.553 664.636 103.351C664.134 101.286 663.423 99.8819 663.774 97.903C663.966 96.8088 661.356 90.5231 660.758 89.103C660.622 88.6995 660.893 88.521 661.189 88.2649C659.92 87.4501 660.151 86.3792 659.896 85.3316C659.321 82.957 657.677 81.1489 657.741 78.4173H656.879C656.384 75.0882 653.799 71.8522 653.001 68.5697C652.625 67.0331 652.386 66.5831 651.708 65.2173C650.758 63.3005 649.545 61.5622 648.691 59.7696C647.773 57.8529 645.922 56.8751 645.674 54.9506H644.812C644.924 53.5227 643.153 52.8786 643.089 51.5982H642.227C642.658 49.34 640.256 49.6194 640.072 47.8268H639.21C639.234 46.7559 636.337 42.806 635.547 42.3791C634.374 41.7428 634.996 41.3393 633.823 40.703C632.323 39.8881 632.139 38.437 630.591 38.1887V37.3506C628.835 37.4515 629.059 34.7664 627.143 35.2553C627.199 34.7742 626.513 33.2843 626.066 33.1601C625.779 33.0825 625.428 33.2532 625.204 33.1601C622.858 32.1435 620.998 29.3033 618.309 28.5506C617.926 28.4419 617.2 26.2768 615.508 26.8744C615.604 25.2913 614.43 25.8423 613.568 25.6172C611.326 25.0275 608.589 23.0797 606.027 23.1029V22.2648C603.72 21.419 601.438 19.5643 598.701 19.3315V18.4934C597.168 18.8116 595.181 16.6698 594.176 16.3982C593.713 16.274 592.963 16.5068 592.452 16.3982C592.308 16.3671 591.303 15.5911 591.159 15.5601C589.938 15.304 589.236 15.6144 587.711 15.141C584.559 14.1632 581.598 13.201 578.23 12.6267C573.913 11.8895 569.396 11.5248 565.302 10.5315C562.668 9.89516 559.707 9.94949 557.114 9.27435C556.076 9.00275 555.27 9.53044 554.097 9.27435C552.693 8.97171 551.735 8.84754 550.219 9.27435C547.449 10.0581 543.938 9.76324 541.169 9.27435C539.948 9.05707 539.054 9.52268 537.29 9.27435C533.212 8.69234 528.025 9.56147 524.792 8.8553C523.539 8.58369 520.563 8.27329 518.759 8.43625C513.085 8.95618 507.594 9.13467 501.952 10.1125C496.549 11.0437 490.827 11.3541 485.576 12.6267C482.471 13.3795 479.048 13.4803 476.095 14.722C472.998 14.3883 469.607 15.9636 466.183 16.8172C463.932 17.3837 457.564 20.0998 456.271 19.7506C456.183 19.7273 454.858 20.0842 454.547 20.1696C452.217 20.8137 450.804 21.6363 448.514 22.6839C446.016 23.8246 443.438 24.4842 440.757 25.1982C440.613 25.237 439.536 26.3234 439.033 26.4553C437.501 26.8589 435.952 27.5107 434.293 28.1315C431.284 29.2645 428.858 31.5925 425.889 32.741V33.5791C422.346 34.456 420.614 37.7153 416.839 38.6077C416.951 40.2296 413.655 40.6874 412.96 41.7506C411.947 43.2948 409.178 45.9333 408.004 46.5696C406.209 47.5396 405.227 49.7125 403.695 50.7601C401.269 52.4208 397.757 57.139 395.076 57.8839C394.525 58.0391 393.631 60.4215 392.921 60.8173C391.604 61.5467 391.804 62.2917 390.982 63.5411C390.415 64.4025 388.803 64.1929 389.258 65.8458H388.396C386.608 71.86 381.349 76.3065 378.915 82.6078C377.104 82.6388 377.479 83.9037 377.191 84.9125C377.088 85.285 375.779 85.9214 376.329 87.2173H375.468C375.077 88.7693 373.137 90.9422 374.175 92.4554C372.746 94.279 372.148 96.2036 371.589 98.3221C370.863 101.077 368.365 104.002 368.572 106.703C366.641 109.31 367.335 113.268 365.125 115.922C364.989 116.403 365.803 116.76 365.556 117.598C364.59 120.873 364.367 125.956 362.539 129.751C363.321 130.705 362.499 133.134 362.108 134.36C361.023 137.767 361.063 143.021 359.953 146.932C359.618 148.103 360.975 152.216 359.091 154.055C359.355 158.215 358.261 161.994 359.091 165.37L358.23 166.208C358.812 168.117 357.966 170.763 358.445 173.122L357.799 174.798V190.303L358.23 193.865C358.381 195.743 359.052 197.939 358.661 200.151C360.775 206.677 359.746 212.505 360.815 219.427C361.095 221.227 361.669 224.223 361.246 225.713C361.174 225.953 362.284 229.407 362.539 230.322C363.066 232.247 364.271 235.033 364.694 237.027C364.917 238.059 364.223 239.386 365.987 239.332C366.354 241.241 366.769 243.126 367.28 244.989C367.423 245.517 367.647 245.431 367.28 246.456H368.141C368.205 248.745 369.338 250.941 370.296 252.951C371.054 254.549 371.86 256.303 372.882 257.979C374.486 260.602 375.452 261.572 376.329 264.684C376.521 265.367 377.231 264.948 377.191 266.779C377.175 267.447 380.048 270.691 379.346 272.018H380.208C380.479 273.663 382.099 274.788 381.932 276.627H382.794C384.31 280.732 386.114 285.582 389.258 288.989L388.827 289.408C389.657 290.106 390.24 291.092 390.12 292.132H390.982C391.525 294.475 394.222 296.027 394.429 298.418H395.722C395.954 299.302 396.544 300.156 397.015 301.141C397.582 302.329 399.306 303.105 400.463 304.494C400.535 304.579 400.391 304.827 400.463 304.913C402.689 307.582 406.672 311.346 407.789 313.294C408.555 314.636 410.933 314.931 410.806 316.856C412.426 316.607 412.833 318.47 413.607 318.951C414.509 319.51 417.27 320.511 417.701 321.256C418.563 322.722 420.454 322.994 421.149 324.189C421.763 325.244 429.281 329.311 430.629 329.846V330.684C432.138 330.281 432.481 331.453 433.646 331.522V332.36C435.346 331.631 436.16 333.835 436.878 334.037C438.706 334.549 440.126 335.348 441.834 335.713V336.551C444.675 337.265 447.309 339.306 449.807 340.741C450.525 341.153 451.171 341.781 452.177 341.579L451.746 342.418C452.44 342.185 452.656 342.806 452.823 342.837C454.539 343.132 454.699 343.481 455.409 343.675C460.373 345.002 465.241 347.019 470.062 348.284C470.732 348.463 472.089 349.51 472.216 349.541C473.765 349.953 475.345 350.17 476.957 350.799C479.311 351.714 481.402 352.032 483.421 352.475C484.02 352.607 486.063 352.32 486.222 352.475V353.313C488.05 353.546 490.444 352.638 491.609 354.151L492.902 353.732C495.312 355.299 498.664 354.772 501.09 356.246C503.819 354.927 508.249 357.527 511.002 357.084C514.146 356.58 518.799 357.519 522.638 357.922C526.189 358.295 529.788 357.79 532.98 358.341C535.047 358.698 537.186 358.442 539.014 358.76C541.113 359.125 543.307 358.427 545.047 358.341C545.877 358.303 546.675 358.171 546.986 359.18H563.363L563.578 358.76C569.524 358.9 574.623 357.977 580.385 358.341C582.308 357.503 585.924 356.696 587.711 357.084C588.996 357.364 591.263 356.417 592.452 356.246C597.28 355.54 602.436 354.011 607.535 354.57C608.82 353.817 611.071 353.15 612.276 353.732C613.034 352.102 619.825 352.467 620.248 352.056V351.218C622.243 351.412 623.887 349.906 625.635 349.122C627.886 348.106 630.815 347.764 632.961 346.608C634.765 345.638 637.335 345.064 638.995 344.094C642.011 342.324 643.991 340.935 647.183 339.484C647.725 339.236 649.226 338.895 649.768 338.646C651.62 337.8 654.389 336.737 655.586 335.084C656.209 334.231 658.124 332.314 658.818 331.941C659.186 331.74 664.086 326.261 664.205 325.865C664.82 323.793 665.123 324.763 665.498 324.399C665.642 324.259 666.623 321.326 666.791 320.837C667.222 319.595 667.406 319.401 667.222 318.322C666.895 316.421 668.363 312.774 668.084 311.199C667.334 306.93 668.18 301.498 668.946 296.532C669.576 292.458 668.507 287.825 670.239 283.541C669.648 281.741 670.654 280.298 670.239 278.513C669.999 277.481 670.51 275.688 670.239 274.741C670.183 274.555 669.584 274.183 669.377 273.903C669.281 273.771 669.369 273.251 668.73 272.856C667.102 271.847 664.341 269.1 662.697 268.665C662.33 268.564 661.771 268.766 661.404 268.665C655.506 267.098 649.306 265.289 643.304 263.637L641.796 262.798C642.833 262.713 644.014 262.923 645.028 262.798C645.188 262.783 645.291 262.41 645.459 262.379C650.846 261.448 656.839 261.58 662.266 260.703C662.553 260.657 665.099 259.819 665.283 259.865C665.777 259.997 666.137 260.191 667.007 259.865C668.323 259.376 669.792 258.018 671.101 257.77C670.845 256.544 672.314 256.668 672.824 255.884C673.359 255.069 674.045 254.177 674.548 253.37C674.843 252.896 674.843 252.159 674.979 251.694C675.027 251.523 675.378 251.43 675.41 251.275C675.53 250.638 675.298 249.823 675.41 249.179C675.434 249.016 675.841 248.9 675.841 248.76C675.841 248.69 675.163 248.341 675.41 247.503C675.673 246.611 675.697 245.936 675.41 244.57C675.099 243.08 674.82 242.63 675.41 240.798C675.657 240.03 674.764 239.534 674.979 238.703L675.41 238.284L674.548 238.075C674.309 237.454 674.979 237.097 674.979 237.027C674.979 236.911 674.396 236.74 674.548 236.189C674.796 235.32 674.692 234.528 674.548 233.675C674.181 231.51 675.346 229.422 674.979 227.179H675.841V223.617C676.711 222.399 678.004 222.795 679.073 222.57C679.576 222.461 681.316 221.499 682.09 221.313C684.021 220.847 685.633 221.879 686.83 220.475L688.123 220.894C689.52 220.11 693.151 219.629 694.587 220.056C695.665 220.374 695.952 219.318 696.311 219.217C697.668 218.853 700.613 219.256 702.345 218.798C702.488 218.76 703.566 217.673 704.068 217.541C704.435 217.44 704.994 217.642 705.361 217.541C705.433 217.518 706.415 216.563 706.439 216.494C706.566 216.036 706.526 213.723 706.439 213.141ZM623.48 347.446C621.15 348.114 619.179 348.998 617.016 349.541C615.045 350.038 612.882 349.875 610.983 350.38C610.217 350.581 609.754 351.52 608.397 351.218C607.264 350.962 604.574 351.419 602.795 351.637C598.629 352.149 594.487 353.033 590.297 353.732C589.746 353.825 583.897 355.105 583.402 354.989C581.119 354.469 579.619 355.734 577.799 355.408C573.618 354.663 568.175 356.766 563.578 355.408C562.788 356.642 560.346 355.765 560.13 355.827C559.915 355.881 559.755 356.471 559.053 356.246V355.408C558.359 355.175 558.143 355.796 557.976 355.827C556.819 356.029 553.65 355.944 552.373 355.827C546.093 355.253 539.293 356.363 532.55 355.408C532.063 355.338 530.746 354.329 529.964 355.408L528.671 354.57C523.516 356.013 518.983 353.53 514.019 354.151L512.726 353.313C509.462 353.972 503.819 353.778 500.659 352.894C500.284 352.793 500.013 351.738 498.935 352.056C497.618 352.444 492.79 351.194 490.747 350.799C488.313 350.325 485.344 349.433 482.99 349.122C481.689 348.952 481.33 349.122 479.973 348.703C478.369 348.207 476.805 347.57 475.233 347.027C472.911 346.228 470.317 345.972 468.338 344.094C467.388 344.614 466.558 344.171 465.752 343.256L464.459 343.675C463.661 342.976 462.711 342.705 461.658 342.837V341.999C457.867 341.859 454.723 339.624 451.315 338.646V337.808H449.591V336.97C448.003 337.048 447.077 335.953 446.359 334.875C443.718 334.914 441.02 331.639 439.033 331.103C436.679 330.475 433.295 328.667 431.276 327.332C430.374 326.734 426.208 324.321 425.889 323.77C424.947 322.125 422.976 322.49 422.01 320.837C421.707 320.309 419.241 319.137 418.563 318.951V318.113C417.741 318.237 417.142 317.655 417.27 316.856C415.714 317.112 414.485 316.336 414.684 314.76C413.591 314.652 412.067 313.907 412.098 312.665C410.167 312.813 409.241 310.345 408.22 309.103C407.677 308.444 406.408 307.606 406.065 307.008C404.629 304.501 401.413 301.63 399.601 298.627C398.97 297.587 396.704 296.089 396.584 295.694C395.938 293.505 392.929 291.728 392.275 289.408C391.588 286.956 391.126 286.428 389.689 284.379C388.803 283.115 387.877 281.4 387.965 279.77C386.178 278.978 386.553 277.993 385.81 276.418C384.861 274.392 383.009 272.522 382.363 270.551C381.908 269.162 381.589 267.788 380.208 266.779L380.639 266.36C378.987 263.443 377.439 260.408 376.329 257.351H375.468L374.606 253.579C373.568 253.766 372.611 252.19 373.313 251.694C371.685 250.762 372.323 249.839 372.02 248.76C371.956 248.528 371.222 248.155 371.158 247.922C370.935 247.146 370.695 245.811 371.158 245.198H370.296V242.684H369.434C369.115 239.34 367.99 236.515 366.418 233.256L366.849 231.16C364.901 229.616 365.085 226.722 364.694 224.456C364.654 224.199 364.127 224.184 364.694 223.198L363.832 221.941C364.383 215.399 362.435 208.772 362.97 201.827C360.919 199.771 362.587 196.007 360.815 193.446C361.717 190.194 361.222 186.881 361.677 183.808L360.815 182.132C362.3 180.122 360.831 177.84 361.246 175.427C361.51 173.89 361.597 172.765 361.246 171.236C360.967 170.018 361.414 169.397 362.108 168.513L361.246 168.303C362.02 167.837 361.51 166.922 361.677 166.208C361.996 164.811 361.254 163.794 362.539 162.436C361.964 160.558 362.387 158.999 362.108 157.408C361.877 156.104 363.002 154.358 362.539 152.798C362.26 151.844 363.233 151.347 363.832 150.703L362.97 149.865C363.952 148.786 363.082 146.629 363.401 145.255C364.287 141.399 364.766 136.324 365.556 131.846C365.604 131.567 366.386 131.543 365.556 131.008C366.841 129.852 366.402 127.733 366.849 125.979C367.319 124.132 368.046 121.409 367.71 119.694C368.955 117.715 368.708 115.169 369.434 112.989C369.977 111.344 370.145 109.644 371.158 107.541C371.709 106.393 371.725 105.244 372.02 104.189C372.307 103.172 374.422 101.543 373.744 99.7887H374.606C373.712 97.6857 376.018 96.0095 376.329 94.9697C376.928 92.9365 377.503 91.2603 378.484 89.5221C379.019 88.5753 379.195 88.1485 379.346 87.4268C379.41 87.1164 379.306 86.7206 379.346 86.3792H380.639L380.208 85.3316C380.966 84.4469 382.155 83.3062 382.794 82.3982C385.124 79.0691 386.688 75.4063 388.827 72.3411C389.202 71.7979 389.394 70.6727 390.551 70.8744C390.112 69.2836 391.636 68.9344 391.413 67.522L392.706 66.8935L392.275 66.4744L393.999 64.7982L393.568 64.3792C393.568 64.0144 396.121 62.54 395.722 61.6554C398.156 61.601 399.361 57.007 402.187 57.0458V55.7887C403.232 55.7499 404.732 54.291 404.772 53.2744L405.419 53.6934C406.081 53.2278 406.161 52.801 406.065 52.0173C406.887 52.1414 407.486 51.5594 407.358 50.7601H408.651L409.513 48.6649C411.396 49.1848 412.298 46.2127 413.176 45.7315C414.173 45.1806 413.974 44.6296 414.9 44.0553C416.951 42.7827 418.643 40.9513 421.149 40.2839V39.4458C421.308 39.2906 422.992 39.5855 423.519 39.4458C423.814 39.3682 425.554 37.3816 426.104 36.9315C426.751 36.4038 428.084 35.4183 428.906 35.2553V34.4172C431.795 33.6723 434.021 31.1735 437.094 31.0649C437.126 29.3033 438.426 29.668 439.464 29.3887C439.703 29.3266 440.086 28.6204 440.326 28.5506C441.81 28.1393 444.388 26.6881 445.497 26.4553C448.211 25.8811 450.972 25.1749 453.254 23.941C456.191 22.358 457.229 22.9322 459.719 22.2648C459.958 22.2028 460.341 21.4966 460.581 21.4267C461.945 21.0465 463.613 21.031 464.89 20.5887C466.837 19.9213 469.327 18.0123 471.354 18.9125C472.272 18.0744 473.381 17.9735 474.586 18.0744V17.2363C475.432 17.6087 476.422 16.8172 476.526 16.8172C476.669 16.8172 476.789 17.2052 476.957 17.2363C479.135 17.601 484.546 14.6444 486.869 15.9791C487.89 14.4737 488.529 14.9393 489.885 14.722C490.053 14.6987 490.173 14.3029 490.316 14.3029C491.386 14.3029 491.314 14.7918 493.333 14.3029C496.389 13.5657 499.574 13.8218 502.383 12.6267C503.197 13.6666 504.346 12.7587 504.969 12.6267C515.264 10.3996 527.394 11.9982 538.152 11.7886C539.429 12.3396 542.645 12.456 544.185 12.2077C547.409 11.6878 551.807 13.4027 554.959 11.7886L556.683 12.6267C558.239 11.8119 560.641 12.65 562.285 13.0458C564.959 13.6899 570.936 15.0789 573.059 14.722C575.078 14.3883 578.973 17.1664 581.247 15.9791C585.596 18.1054 589.81 18.7573 594.391 19.7506V20.5887C596.386 20.7671 598.102 21.9312 599.778 22.6839C600.792 23.1417 601.821 23.6694 602.867 24.1894L602.364 24.7791L599.778 26.4553L599.347 26.0363C597.631 27.0451 596.386 29.1171 594.391 29.3887V30.2268H593.529C593.489 31.3442 592.157 32.5548 590.944 32.322V33.1601C590.122 33.0359 589.523 33.6179 589.651 34.4172H588.358C588.422 35.5502 586.45 36.5823 585.341 36.5125C584.16 38.6232 581.933 40.0977 580.17 42.1696C576.922 45.9799 573.474 48.8977 570.689 52.8553H569.827V54.1125H568.965V54.9506C568.007 54.9118 566.77 56.1146 566.81 57.0458H565.517V58.303H564.655V59.5601C562.908 59.2497 562.429 62.9823 562.07 63.3316C561.99 63.4092 561.623 63.2229 561.423 63.3316C561.2 63.4557 559.173 66.8857 559.053 67.3125C558.973 67.5919 559.101 68.0187 559.053 68.3601H558.191L558.622 68.9887C557.808 70.2691 557.824 70.8356 556.467 71.503L556.898 71.922L553.02 77.3697C553.794 77.9206 553.195 77.843 553.02 78.2078C551.607 81.1721 548.918 83.57 548.71 86.7982H547.848L546.555 90.1506H545.694C545.526 91.0741 545.845 91.4776 546.555 92.0363V92.4554C546.42 92.9443 545.302 93.9919 545.263 94.1316C544.568 96.5993 544.161 99.0438 543.108 101.255C542.334 102.877 540.905 105.213 541.384 106.703C539.453 109.31 540.147 113.268 537.936 115.922C538.639 117.684 538.152 121.277 537.075 123.046C537.521 124.171 537.37 126.313 536.213 127.236C537.003 127.71 535.654 128.331 536.644 128.913L535.782 129.751C536.117 132.498 534.944 135.501 534.489 138.132C533.483 143.944 533.914 149.368 532.334 154.055C532.597 158.215 531.504 161.994 532.334 165.37L531.472 166.208C532.055 168.117 531.209 170.763 531.688 173.122L531.041 174.798V190.303L531.472 193.865C531.624 195.743 532.294 197.939 531.903 200.151C533.14 202.137 532.837 205.179 533.196 207.275C533.707 210.254 533.26 213.498 533.627 216.913C533.906 219.489 535.191 223.245 534.489 225.713C534.353 226.202 536.835 233.651 537.075 234.513C537.338 235.483 537.721 236.554 537.936 237.446C538.152 238.331 537.625 239.409 539.229 239.332C539.636 242.288 540.474 245.16 541.384 247.922C541.663 248.776 542.054 249.459 541.815 250.646H542.677C542.988 252.229 543.682 253.804 544.832 255.046L544.401 255.884C545.287 256.683 545.941 257.948 546.124 259.027H546.986C547.05 260.424 548.144 261.479 548.71 263.008C549.285 264.544 550.027 265.445 550.003 266.779C549.987 267.447 552.86 270.691 552.158 272.018H553.02C555.182 276.899 557.68 282.121 559.915 286.894C560.338 287.794 560.809 288.267 561.639 288.989L561.208 289.827L562.501 291.084L562.07 291.503C563.873 293.35 565.813 295.857 566.379 297.789C566.563 298.425 568.486 298.503 568.103 299.675H568.965C568.853 300.195 569.236 302.034 569.396 302.189C569.476 302.267 569.835 302.08 570.042 302.189C570.521 302.453 573.626 305.906 573.705 306.17C574.312 308.234 578.326 312.006 579.308 313.713C579.93 314.807 581.191 314.923 581.894 316.227C582.58 317.508 582.348 316.933 582.971 317.275C584.048 317.857 584.399 320.006 586.203 319.789V320.627C588.278 320.875 590.872 324.592 592.452 325.237C593.92 325.834 594.615 327.549 596.115 327.751V328.589C598.405 328.248 598.357 330.661 600.424 330.684V331.522L603.01 332.36V333.199C604.949 333.036 606.123 334.805 607.966 335.713C610.057 336.745 612.02 337.979 613.999 339.065C615.3 339.779 614.702 339.469 615.077 340.113C615.42 340.703 619.107 342.255 619.817 343.465C620.424 344.505 621.405 343.884 622.188 344.094C622.427 344.156 622.802 344.862 623.049 344.932C623.552 345.079 624.749 345.009 624.989 345.77L625.523 345.987C625.276 346.057 625.021 346.119 624.773 346.189C624.47 346.267 623.792 347.353 623.48 347.446Z" fill="black"/>
<path d="M453.016 139.374L452.29 138.241C449.17 136.727 444.294 134.446 440.942 134.624C439.314 133.437 436.632 132.824 434.597 132.77L433.089 131.932C429.649 131.699 426.242 131.458 422.874 131.218H415.548C414.861 131.388 414.614 131.528 414.829 131.637C410.209 131.303 405.684 132.188 401.829 134.593L400.392 134.663C397.823 136.254 395.221 137.853 392.276 138.768C390.018 140.996 387.264 142.912 384.04 144.519C380.01 147.801 375.254 151.891 375.062 157.207C375.014 157.455 375.086 157.773 375.062 158.045L375.325 158.89C378.135 161.544 381.319 163.314 384.87 164.912C386.251 166.201 388.078 166.93 390.345 167.116C398.597 170.205 407.088 171.803 415.556 172.292H420.296C426.872 172.021 433.217 171.462 438.899 167.939L440.032 168.024C444.796 165.347 449.242 162.53 453.368 159.581C454.118 159.294 454.732 158.681 455.211 157.742C458.06 155.957 460.51 153.862 462.569 151.456C465.594 145.132 458.579 140.965 453.016 139.397V139.374Z" fill="white"/>
<path d="M274.169 139.37L273.442 138.237C270.322 136.724 265.446 134.442 262.094 134.621C261.128 133.558 259.843 133.519 258.862 133.566C254.153 131.951 249.213 131.168 244.026 131.206H236.7C236.013 131.377 235.766 131.517 235.981 131.626C231.361 131.292 226.836 132.176 222.981 134.582L221.545 134.652C218.975 136.243 216.373 137.841 213.428 138.749C211.17 140.976 208.416 142.893 205.192 144.5C201.162 147.782 196.406 151.872 196.214 157.187C196.166 157.436 196.238 157.754 196.214 158.026L196.477 158.871C199.287 161.525 202.471 163.295 206.022 164.893C207.403 166.181 209.23 166.911 211.497 167.097C219.749 170.186 228.24 171.784 236.708 172.273H241.448C246.069 172.234 250.45 171.606 254.608 170.387C255.518 169.635 256.364 169.317 257.154 169.441C258.566 168.416 259.915 167.935 261.192 168.005C265.957 165.328 270.402 162.511 274.528 159.562C275.278 159.275 275.892 158.662 276.371 157.723C279.22 155.938 281.67 153.843 283.729 151.437C286.754 145.113 279.739 140.953 274.176 139.378L274.169 139.37Z" fill="white"/>
<path d="M629.703 139.37L628.977 138.237C625.857 136.724 620.98 134.442 617.629 134.621C616.663 133.558 615.378 133.519 614.396 133.566C609.688 131.951 604.748 131.168 599.561 131.206H592.234C591.548 131.377 591.301 131.517 591.516 131.626C586.895 131.292 582.37 132.176 578.516 134.582L577.079 134.652C574.509 136.243 571.908 137.841 568.963 138.749C566.704 140.976 563.951 142.893 560.727 144.5C556.697 147.782 551.94 151.872 551.749 157.187C551.701 157.436 551.773 157.754 551.749 158.026L552.012 158.871C554.821 161.525 558.006 163.295 561.557 164.893C562.938 166.181 564.765 166.911 567.032 167.097C575.284 170.186 583.775 171.784 592.242 172.273H596.983C601.604 172.234 605.985 171.606 610.143 170.387C611.053 169.635 611.899 169.317 612.689 169.441C614.101 168.416 615.45 167.935 616.727 168.005C621.491 165.328 625.936 162.511 630.062 159.562C630.812 159.275 631.427 158.662 631.906 157.723C634.755 155.938 637.205 153.843 639.264 151.437C642.289 145.113 635.274 140.953 629.711 139.378L629.703 139.37Z" fill="white"/>
<path d="M453.016 139.374L452.29 138.241C449.17 136.727 444.294 134.446 440.942 134.624C439.314 133.437 436.632 132.824 434.597 132.77L433.089 131.932C429.649 131.699 426.242 131.458 422.874 131.218H415.548C414.861 131.388 414.614 131.528 414.829 131.637C410.209 131.303 405.684 132.188 401.829 134.593L400.392 134.663C397.823 136.254 395.221 137.853 392.276 138.768C390.018 140.996 387.264 142.912 384.04 144.519C380.01 147.801 375.254 151.891 375.062 157.207C375.014 157.455 375.086 157.773 375.062 158.045L375.325 158.89C378.135 161.544 381.319 163.314 384.87 164.912C386.251 166.201 388.078 166.93 390.345 167.116C398.597 170.205 407.088 171.803 415.556 172.292H420.296C426.872 172.021 433.217 171.462 438.899 167.939L440.032 168.024C444.796 165.347 449.242 162.53 453.368 159.581C454.118 159.294 454.732 158.681 455.211 157.742C458.06 155.957 460.51 153.862 462.569 151.456C465.594 145.132 458.579 140.965 453.016 139.397V139.374ZM411.892 168.924C411.733 168.901 411.621 168.529 411.461 168.505C408.644 168.094 405.444 167.59 402.842 166.41C402.004 166.891 401.55 166.278 401.119 166.829L400.257 165.991C395.492 165.704 391.821 162.763 387.113 162.22V161.381C385.884 161.265 385.07 160.225 383.665 160.543C383.601 160.225 383.298 158.929 383.234 158.867C383.154 158.79 382.795 158.976 382.588 158.867C382.237 158.673 381.327 157.928 380.864 157.61C380.249 157.191 379.563 156.586 378.925 156.143V155.096H379.787L380.648 152.581H381.941C381.622 151.79 382.691 151.48 382.803 151.115C382.883 150.859 382.723 150.533 382.803 150.277C382.899 149.943 387.568 146.676 388.406 146.715V145.877C390.911 145.822 391.071 143.704 393.792 142.943C394.359 142.788 395.029 141.042 396.594 141.686V140.429C397.615 140.724 398.222 139.878 398.964 139.591C403.281 137.923 406.474 136.51 411.031 135.401C411.27 135.338 411.749 134.663 412.539 134.981C412.802 136.262 410.647 136.409 410.384 137.286C410.775 138.567 408.804 140.538 408.66 141.058C408.094 143.083 408.341 145.916 407.798 148.181C407.615 148.934 408.11 150.603 407.798 151.953C407.455 153.443 407.782 154.413 407.367 156.143C407.008 157.641 408.11 157.827 408.229 158.239C408.325 158.588 408.142 159.123 408.229 159.496C408.628 161.172 410.105 164.307 411.246 165.781C412.108 166.891 413.56 167.659 414.263 168.924C413.497 168.862 412.635 169.017 411.892 168.924ZM459.936 149.229H459.074V150.486C457.861 150.339 457.198 152.085 456.272 152.581C455.506 152.993 455.115 153.839 454.98 153.839L454.549 153.42C453.296 154.987 451.835 156.493 449.808 157.61C448.515 158.324 449.106 157.998 448.731 158.658C448.013 159.915 447.214 159.48 446.361 159.705C444.525 160.186 441.915 162.926 439.896 163.896L439.034 163.477C437.406 165.083 433.496 166.907 431.708 166.41C430.727 166.138 430.216 167.085 429.553 167.667L428.045 167.248V168.086C426.561 168.575 424.813 168.443 423.52 169.343L422.012 168.924C422.187 168.234 422.938 168.055 423.52 167.667C424.925 166.728 426.84 164.773 427.614 163.267C427.79 162.933 427.518 162.026 428.476 161.591C427.606 161.18 428.803 160.38 428.907 159.915C429.099 159.046 429.019 157.936 429.338 156.981C429.96 155.104 428.867 152.768 429.769 150.696L428.907 149.858C429.761 148.065 428.356 145.947 428.907 143.991C429.13 143.215 427.127 139.855 427.183 138.543L424.167 134.981L428.261 135.82C429.282 134.601 432.004 136.533 433.001 136.239C436.249 135.276 435.148 136.727 436.449 137.077C439.298 137.837 442.139 137.93 445.068 139.172C445.858 139.506 446.983 140.67 447.653 140.848C450.415 141.578 453.144 143.401 455.842 144.62C456.847 145.077 457.214 145.83 458.212 145.877V146.715C459.584 146.738 460.167 147.925 459.936 149.229Z" fill="black"/>
<path d="M629.703 139.37L628.977 138.237C625.857 136.724 620.98 134.442 617.629 134.621C616.663 133.558 615.378 133.519 614.396 133.566C609.688 131.951 604.748 131.168 599.561 131.206H592.234C591.548 131.377 591.301 131.517 591.516 131.626C586.895 131.292 582.37 132.176 578.516 134.582L577.079 134.652C574.509 136.243 571.908 137.841 568.963 138.749C566.704 140.976 563.951 142.893 560.727 144.5C556.697 147.782 551.94 151.872 551.749 157.187C551.701 157.436 551.773 157.754 551.749 158.026L552.012 158.871C554.821 161.525 558.006 163.295 561.557 164.893C562.938 166.181 564.765 166.911 567.032 167.097C575.284 170.186 583.775 171.784 592.242 172.273H596.983C601.604 172.234 605.985 171.606 610.143 170.387C611.053 169.635 611.899 169.317 612.689 169.441C614.101 168.416 615.45 167.935 616.727 168.005C621.491 165.328 625.936 162.511 630.062 159.562C630.812 159.275 631.427 158.662 631.906 157.723C634.755 155.938 637.205 153.843 639.264 151.437C642.289 145.113 635.274 140.953 629.711 139.378L629.703 139.37ZM595.905 168.502C594.573 169.154 592.681 168.587 591.165 168.921C589.848 169.208 588.875 168.603 588.148 168.502C585.339 168.098 582.131 167.578 579.529 166.407C578.691 166.888 578.236 166.275 577.805 166.826L576.944 165.987C572.179 165.7 568.508 162.759 563.8 162.216V161.378C562.571 161.262 561.756 160.222 560.352 160.54C560.288 160.222 559.985 158.926 559.921 158.864C559.841 158.786 559.482 158.972 559.275 158.864C558.923 158.67 558.014 157.925 557.551 157.606C556.936 157.187 556.25 156.582 555.611 156.14V155.092H556.473L557.335 152.578H558.628C558.309 151.786 559.378 151.476 559.49 151.111C559.57 150.855 559.41 150.529 559.49 150.273C559.586 149.939 564.254 146.672 565.092 146.711V145.873C567.598 145.819 567.758 143.7 570.479 142.94C571.046 142.785 571.716 141.039 573.28 141.683V140.426C574.302 140.72 574.908 139.875 575.651 139.587C580.559 137.686 586.68 134.838 591.596 134.14C592.625 133.992 593.942 134.512 594.613 133.721L596.121 134.559C596.472 136.258 594.78 136.142 593.966 137.283C594.357 138.563 592.386 140.534 592.242 141.054C591.676 143.079 591.923 145.912 591.38 148.178C591.197 148.931 591.692 150.599 591.38 151.949C591.037 153.439 591.364 154.409 590.949 156.14C590.59 157.638 591.7 157.824 591.811 158.235C591.907 158.584 591.724 159.12 591.811 159.492C592.21 161.168 593.687 164.304 594.828 165.778C595.69 166.888 597.142 167.656 597.845 168.921L595.905 168.502ZM636.622 149.226H635.76V150.483C634.547 150.335 633.885 152.081 632.959 152.578C632.193 152.989 631.802 153.835 631.666 153.835L631.235 153.416C629.982 154.984 628.522 156.489 626.495 157.606C625.202 158.32 625.793 157.995 625.418 158.654C624.699 159.911 623.901 159.477 623.047 159.702C621.212 160.183 618.602 162.922 616.583 163.892L615.721 163.473C614.684 165.041 612.96 164.8 611.843 165.987L609.041 166.407C608.826 166.236 609.728 165.599 609.903 165.359C610.805 164.094 611.108 162.775 612.058 161.587C611.188 161.176 612.385 160.377 612.489 159.911C612.681 159.042 612.601 157.932 612.92 156.978C613.543 155.1 612.449 152.764 613.351 150.692L612.489 149.854C613.231 148.589 612.473 146.23 612.058 144.826C611.891 144.267 612.657 144.127 612.489 143.568C611.93 141.69 610.733 140.014 610.765 137.911H609.903C610.055 136.802 608.563 136.406 608.18 135.397C608.93 135.071 609.544 135.793 609.688 135.816C610.342 135.909 611.292 135.669 611.843 135.816C612.146 135.894 612.832 136.996 613.136 137.073C615.985 137.834 618.826 137.927 621.755 139.168C622.593 139.525 623.686 140.666 624.34 140.845C627.11 141.59 629.823 143.398 632.528 144.616C633.534 145.074 633.901 145.827 634.899 145.873V146.711C636.271 146.735 636.854 147.922 636.622 149.226Z" fill="black"/>
<path d="M274.169 139.37L273.442 138.237C270.322 136.724 265.446 134.442 262.094 134.621C261.128 133.558 259.843 133.519 258.862 133.566C254.153 131.951 249.213 131.168 244.026 131.206H236.7C236.013 131.377 235.766 131.517 235.981 131.626C231.361 131.292 226.836 132.176 222.981 134.582L221.545 134.652C218.975 136.243 216.373 137.841 213.428 138.749C211.17 140.976 208.416 142.893 205.192 144.5C201.162 147.782 196.406 151.872 196.214 157.187C196.166 157.436 196.238 157.754 196.214 158.026L196.477 158.871C199.287 161.525 202.471 163.295 206.022 164.893C207.403 166.181 209.23 166.911 211.497 167.097C219.749 170.186 228.24 171.784 236.708 172.273H241.448C246.069 172.234 250.45 171.606 254.608 170.387C255.518 169.635 256.364 169.317 257.154 169.441C258.566 168.416 259.915 167.935 261.192 168.005C265.957 165.328 270.402 162.511 274.528 159.562C275.278 159.275 275.892 158.662 276.371 157.723C279.22 155.938 281.67 153.843 283.729 151.437C286.754 145.113 279.739 140.953 274.176 139.378L274.169 139.37ZM223.564 166.407C222.981 166.569 222.734 166.507 222.271 166.826L221.409 165.987C216.644 165.7 212.973 162.759 208.265 162.216V161.378C207.036 161.262 206.222 160.222 204.817 160.54C204.753 160.222 204.45 158.926 204.386 158.864C204.306 158.786 203.947 158.972 203.74 158.864C203.389 158.67 202.479 157.925 202.016 157.606C201.401 157.187 200.715 156.582 200.077 156.14V155.092H200.939L201.801 152.578H203.093C202.774 151.786 203.844 151.476 203.955 151.111C204.035 150.855 203.875 150.529 203.955 150.273C204.051 149.939 208.72 146.672 209.558 146.711V145.873C212.064 145.819 212.223 143.7 214.945 142.94C215.511 142.785 216.182 141.039 217.746 141.683V140.426C218.767 140.728 219.382 139.867 220.116 139.587C220.371 139.494 220.738 139.688 220.978 139.587C221.273 139.471 222.574 138.416 222.917 138.749L221.624 141.054C221.377 143.436 221.305 145.935 220.762 148.178C220.579 148.931 221.074 150.599 220.762 151.949C220.419 153.439 220.746 154.409 220.331 156.14C219.972 157.638 221.074 157.824 221.193 158.235C221.289 158.584 221.106 159.12 221.193 159.492C221.672 161.51 222.997 163.947 224.21 165.778C224.37 166.018 225.287 166.655 225.072 166.826C224.37 167.043 224.106 166.259 223.564 166.407ZM281.088 149.226H280.226V150.483C279.013 150.335 278.35 152.081 277.425 152.578C276.658 152.989 276.267 153.835 276.132 153.835L275.701 153.416C274.448 154.984 272.987 156.489 270.96 157.606C269.667 158.32 270.258 157.995 269.883 158.654C269.165 159.911 268.367 159.477 267.513 159.702C265.677 160.183 263.068 162.922 261.048 163.892L260.187 163.473C258.471 165.235 256.061 166.018 253.722 166.407C252.182 166.663 250.027 168.005 248.12 168.502C246.508 168.921 242.581 169.208 240.794 168.921C239.844 168.766 239.597 168.758 238.639 168.921C238.184 168.998 237.617 168.874 237.131 168.921C237.362 168.641 237.498 167.966 237.562 167.873C239.03 165.747 240.299 163.667 241.44 161.587C240.57 161.176 241.767 160.377 241.871 159.911C242.063 159.042 241.983 157.932 242.302 156.978C242.924 155.1 241.831 152.764 242.733 150.692L241.871 149.854C242.613 148.589 241.855 146.23 241.44 144.826C241.273 144.267 242.039 144.127 241.871 143.568C241.4 141.985 240.682 140.309 240.147 138.54C240.075 138.291 237.562 135.956 237.562 135.606C238.352 135.048 237.897 134.799 237.562 134.14L239.07 133.721L240.363 134.559C243.667 132.867 247.074 134.171 250.275 134.978C252.158 135.451 254.656 135.374 256.308 135.816C256.611 135.894 257.298 136.996 257.601 137.073C260.45 137.834 263.291 137.927 266.22 139.168C267.01 139.502 268.135 140.666 268.806 140.845C271.567 141.574 274.296 143.398 276.994 144.616C277.999 145.074 278.366 145.827 279.364 145.873V146.711C280.737 146.735 281.319 147.922 281.088 149.226Z" fill="black"/>
<path d="M596.979 141.698V143.793H595.04L593.747 142.955L592.885 143.793C589.557 143.584 585.248 143.11 582.111 143.793C578.496 144.577 571.8 142.474 568.321 143.374L564.658 143.165L567.89 140.86C571.808 140.41 577.083 141.465 580.818 140.86C581.313 140.782 581.529 140.557 582.542 140.86C584.434 141.419 586.987 140.534 589.006 140.86C590.65 141.124 593.587 141.147 594.609 140.86C595.758 140.542 596.173 141.248 596.979 141.698Z" fill="black"/>
<path d="M427.611 140.015C427.787 141.582 427.611 140.992 426.965 141.272C426.789 141.349 426.701 141.629 426.534 141.691C424.626 142.366 422.312 142.513 420.5 143.786C419.423 142.979 416.829 143.84 416.622 143.786C413.757 143.018 410.349 144.011 406.71 143.786C404.188 143.631 400.341 142.878 398.091 143.367C396 143.825 392.409 143.033 390.118 143.367L391.196 142.529C392.201 142.498 393.853 141.016 394.643 140.853C398.817 139.976 406.119 141.574 410.588 140.853C411.841 140.651 412.871 141.349 413.174 141.272C415.696 140.597 419.311 140.496 422.224 141.272C422.831 141.435 424.714 140.123 425.241 140.015C425.911 139.875 426.877 140.108 427.611 140.015Z" fill="black"/>
<path d="M575.864 145.043V145.881L577.373 145.043C578.865 145.679 580.597 145.214 582.113 145.462C582.768 145.571 583.821 145.757 584.699 145.881C586.949 146.199 591.012 145.385 592.887 145.881C594.339 146.261 593.063 148.178 591.379 147.557V148.396C590.589 147.899 589.719 148.473 589.439 148.396C585.816 147.425 579.104 148.59 575.218 147.976H558.195C558.65 147.208 559.456 146.207 560.35 146.3V145.462C562.401 145.757 565.585 145.051 567.461 145.462C569.097 145.819 572.449 145.555 574.356 145.043C574.787 144.927 574.955 145.167 575.218 145.462L575.864 145.043Z" fill="black"/>
<path d="M405.641 145.036V145.874L407.149 145.036C408.003 144.795 408.322 145.432 408.442 145.455C409.575 145.649 412.057 145.571 412.752 145.455C413.925 145.261 415.05 146.2 416.415 145.874C416.271 146.316 415.712 146.867 415.337 147.131C415.234 147.201 414.124 147.946 414.044 147.969C413.59 148.093 412.847 147.876 412.321 147.969C412.161 148 412.065 148.334 411.89 148.388C411.515 148.497 409.001 147.736 407.58 147.969C407.373 148 405.553 148.419 405.425 148.388C399.911 146.914 392.553 148.862 386.895 147.55C385.809 147.302 384.828 148.256 383.662 147.969C384.069 147.364 385.027 146.208 385.602 145.874C386.088 145.595 386.855 145.602 387.325 145.455C387.533 145.393 387.621 144.881 388.187 145.036C388.363 145.082 388.475 145.455 388.618 145.455C388.69 145.455 389.065 144.788 389.911 145.036C392.553 145.82 394.995 144.966 397.237 145.455C398.873 145.812 402.225 145.548 404.133 145.036C404.564 144.919 404.731 145.16 404.994 145.455L405.641 145.036Z" fill="black"/>
<path d="M585.774 152.166L580.603 153.004L580.387 152.166C579.925 152.74 578.6 152.702 577.802 152.585C571.553 151.685 564.945 152.965 557.547 151.747C556.781 152.438 555.767 152.725 554.746 152.585L556.039 149.652C557.044 149.768 558.321 149.489 559.271 149.652C561.106 149.97 563.062 149.256 564.873 149.652C566.246 149.947 570.899 149.861 572.199 149.652C573.5 149.442 574.298 150.017 574.785 150.071C577.02 150.304 579.342 149.241 581.249 149.652C581.784 149.768 582.526 150.001 582.973 150.071C584.122 150.257 585.471 149.605 586.205 150.699L585.774 152.166Z" fill="black"/>
<path d="M410.8 149.661C411.08 150.755 409.954 150.732 409.723 150.918C409.108 151.407 408.606 152.082 407.999 152.594H407.568C407.057 152.02 405.381 152.028 404.551 152.175C400.306 152.912 393.043 152.074 387.313 151.756C385.478 153.324 383.339 151.826 380.849 152.175C380.713 152.191 380.091 152.92 379.341 152.594C380.219 151.415 381.424 148.706 383.004 150.08L384.297 149.242C387.146 150.677 391.894 149.063 394.64 149.661C396.012 149.956 400.665 149.87 401.966 149.661C403.634 149.389 405.485 150.297 407.568 150.08C407.728 150.064 407.839 149.676 407.999 149.661C408.885 149.56 409.891 149.731 410.8 149.661Z" fill="black"/>
<path d="M414.69 135.405C414.602 136.212 415.663 135.699 416.198 135.824C416.374 135.862 416.493 136.398 417.06 136.243C418.76 135.785 419.726 136.018 420.939 135.824C421.657 135.707 422.559 135.901 423.309 135.824V137.709L421.8 138.757C421.393 138.214 419.917 138.183 419.215 138.338C419.039 138.377 418.919 138.912 418.353 138.757C415.48 137.989 413.461 138.866 411.027 138.338C408.912 137.88 404.786 138.858 402.839 138.338C402.767 138.315 401.785 137.368 401.761 137.29C402.448 135.203 404.139 135.265 406.071 135.405V136.662L408.01 135.824C409.638 136.569 410.205 135.777 411.889 136.243C412.232 136.336 413.461 135.459 414.259 135.824L413.181 134.985C412.503 135.955 412.016 134.985 411.889 134.985C411.745 134.985 411.609 135.397 411.458 135.405C411.378 135.405 410.699 134.66 409.949 134.985L411.027 134.147C412.822 133.472 414.794 132.06 416.629 133.309L417.922 132.471C418.233 132.937 419.271 132.983 419.43 133.519C420.045 135.544 415.919 135.567 414.69 135.405Z" fill="black"/>
<path d="M230.669 135.411C230.582 136.218 231.643 135.706 232.178 135.83C232.353 135.869 232.473 136.405 233.04 136.249C234.74 135.792 235.705 136.024 236.918 135.83C237.636 135.714 236.144 135.908 236.894 135.83V137.716L235.386 138.764C234.979 138.22 235.897 138.189 235.194 138.345C233.287 138.756 228.81 138.531 227.006 138.345H217.31L220.111 136.249L220.758 136.668V135.83C221.236 135.885 221.827 135.745 222.266 135.83C224.189 136.218 226.2 135.784 227.868 136.249C228.211 136.343 229.44 135.466 230.238 135.83L229.161 134.992C228.898 135.287 228.73 135.528 228.299 135.411C227.756 135.264 226.623 134.837 225.713 134.992C225.546 135.023 225.426 135.411 225.283 135.411L224.636 134.154H227.222V133.316C229.057 133.572 230.989 132.144 232.609 133.316L233.686 132.687C233.83 132.486 234.708 132.858 234.763 132.897C235.155 133.138 235.41 133.448 235.41 133.945C235.41 135.621 232.026 135.489 230.669 135.411Z" fill="black"/>
<path d="M238.857 141.269L236.918 142.945C235.713 143.643 234.595 143.116 233.47 143.364C233.295 143.403 233.175 143.938 232.608 143.783C229.743 143.015 226.336 144.008 222.696 143.783C220.175 143.628 216.328 142.875 214.077 143.364C212.856 143.628 210.893 143.17 209.552 143.364L212.784 140.85C216.958 140.376 222.601 141.494 226.575 140.85C227.046 140.772 227.301 140.539 228.299 140.85C229.456 141.214 229.903 141.013 230.884 140.85C232.56 140.578 235.657 140.656 237.349 140.85C238.019 140.927 238.179 141.385 238.857 141.269Z" fill="black"/>
<path d="M221.616 145.043V145.881L223.124 145.043C225.159 145.617 227.122 145.617 229.157 145.043L231.096 145.881C230.865 146.331 229.429 147.899 229.157 147.976C228.734 148.093 228.216 147.767 227.864 148.396C227.026 148.644 226.691 148 226.572 147.976C224.513 147.619 222.358 148.667 220.969 147.976H203.085C202.662 147.604 204.13 145.959 204.808 146.3V145.462C205.463 145.695 205.798 145.043 205.886 145.043C206.029 145.043 206.149 145.439 206.317 145.462C209.142 145.92 217.649 145.703 220.107 145.043C220.538 144.927 220.706 145.167 220.969 145.462L221.616 145.043Z" fill="black"/>
<path d="M405.212 155.098C404.789 155.897 404.079 156.122 404.35 157.193C403.656 156.96 403.44 157.581 403.273 157.612C402.73 157.705 401.237 157.705 400.687 157.612C399.178 157.372 397.822 157.915 395.946 157.612C395.3 157.511 389.49 157.061 389.051 157.193C386.745 157.876 383.92 157.457 381.725 157.193C380.312 157.022 378.652 157.317 377.2 157.193C377.687 156.65 377.503 156.161 377.631 155.726C377.79 155.191 378.828 155.144 379.139 154.679C379.554 154.399 379.857 155.098 380.001 155.098C380.097 155.098 380.624 154.43 381.725 154.679C383.273 155.028 385.46 155.036 386.896 154.26L388.62 155.098C391.972 155.051 395.731 155.207 399.394 154.679C400.703 154.493 401.477 155.044 401.98 155.098C403.009 155.206 404.166 155.02 405.212 155.098Z" fill="black"/>
<path d="M553.451 157.612L553.882 154.679C554.536 154.446 554.871 155.098 554.959 155.098C555.087 155.098 556.787 154.485 557.114 154.26L558.838 155.098C562.189 155.051 565.948 155.207 569.611 154.679C570.92 154.493 571.702 155.044 572.197 155.098C574.112 155.3 576.969 154.741 578.661 155.098C578.797 155.129 580.106 155.951 580.17 156.145C580.369 156.797 580.026 157.232 579.523 157.612C576.89 157.317 573.41 158.016 570.904 157.612C569.771 157.426 566.77 157.372 565.302 157.612C563.833 157.853 562.748 156.906 561.423 157.193C559.771 157.55 557.377 157.783 555.39 157.193C554.6 156.96 554.233 157.721 553.451 157.612Z" fill="black"/>
<path d="M584.918 135.411C584.83 136.218 585.892 135.706 586.427 135.83C586.602 135.869 586.722 136.405 587.288 136.249C588.988 135.792 589.954 136.024 591.167 135.83C591.885 135.714 592.787 135.908 593.537 135.83V137.716L592.029 138.764C591.622 138.22 590.145 138.189 589.443 138.345C589.268 138.383 589.148 138.919 588.581 138.764C585.708 137.995 583.689 138.872 581.255 138.345C579.052 137.864 575.262 138.694 572.852 138.345L575.653 136.249C576.547 136.637 578.43 135.768 578.669 135.83C580.337 136.28 580.617 135.838 582.117 136.249C582.46 136.343 583.665 135.473 584.487 135.83L583.41 134.992C582.811 135.955 582.173 134.643 581.686 135.411L579.747 134.992C579.986 133.572 582.5 134.41 582.763 134.154V133.316C584.304 133.704 585.748 132.237 586.857 133.316L587.935 132.687C588.078 132.486 588.956 132.858 589.012 132.897C589.403 133.138 589.659 133.448 589.659 133.945C589.659 135.621 586.275 135.489 584.918 135.411Z" fill="black"/>
<path d="M225.925 149.652C225.813 150.28 224.903 150.645 224.632 151.119C224.52 151.32 224.712 151.669 224.632 151.747C224.56 151.817 224.217 151.654 223.986 151.747C223.802 151.825 223.706 152.143 223.555 152.166C222.653 152.321 221.44 152.011 220.538 152.166C216.292 152.903 209.03 152.065 203.3 151.747C203.053 151.933 202.127 152.562 202.007 152.585C200.906 152.826 199.948 151.887 198.775 152.166C199.158 151.157 200.65 150.762 200.499 149.652C201.895 149.815 203.707 149.427 205.024 149.652C206.859 149.97 208.814 149.256 210.626 149.652C211.999 149.947 216.651 149.861 217.952 149.652C219.772 149.357 221.336 150.071 223.986 149.652C224.576 149.559 225.302 149.714 225.925 149.652Z" fill="black"/>
<path d="M220.756 155.098C220.876 155.191 220.054 156.277 219.894 156.565C219.831 156.681 219.95 156.89 219.894 156.984C219.487 157.612 218.825 157.527 218.386 158.031C217.963 157.348 217.309 157.721 216.662 157.612C215.537 157.426 212.52 157.379 211.06 157.612C209.599 157.845 208.506 156.906 207.181 157.193C205.066 157.651 202.026 157.224 199.855 157.612C198.602 157.837 197.812 157.17 196.623 157.193C196.511 156.215 197.014 155.292 197.7 154.679C198.467 155.773 199.4 154.423 200.286 154.679C200.964 154.873 202.074 154.95 202.872 154.26H203.303C207.884 156.161 214.547 154.469 219.463 154.888L220.756 155.098Z" fill="black"/>
<path d="M401.764 158.862L399.394 161.376C397.989 161.174 395.93 161.655 394.653 161.376C394.454 161.329 394.254 160.716 393.792 160.957L392.499 161.795C389.745 161.422 384.63 160.902 381.725 161.376C381.557 161.399 381.438 161.795 381.294 161.795L377.2 159.7L377.415 158.862C378.628 158.722 380.137 159.048 381.294 158.862C382.619 158.644 384.989 158.551 386.896 158.862C389.315 159.25 393.959 158.474 396.377 158.862C397.718 159.079 398.42 158.714 399.394 158.443C399.737 158.349 400.966 159.226 401.764 158.862Z" fill="black"/>
<path d="M554.096 158.442C554.823 159.249 556.155 158.706 557.113 158.861C559.531 159.249 564.176 158.473 566.594 158.861C568.15 159.118 569.052 158.551 570.473 158.861C571.542 159.094 573.218 158.667 574.351 158.861C574.511 158.892 574.607 159.226 574.782 159.28C575.421 159.474 576.713 159.319 576.29 160.747C576.107 161.368 575.301 161.337 574.782 161.376C573.657 161.461 570.536 161.577 569.611 161.376C567.903 161.003 565.924 161.857 564.008 160.957L562.716 161.795C560.218 160.91 557.943 161.942 555.389 160.538C554.871 160.251 554.304 159.521 553.666 159.28L554.096 158.442Z" fill="black"/>
<path d="M217.746 158.876C217.89 160.063 216.23 160.288 216.454 161.39C214.754 161.142 212.184 161.731 210.636 161.39C210.436 161.343 210.237 160.73 209.774 160.971L208.481 161.809C206.582 160.808 203.629 161.817 201.586 161.39C201.123 161.297 200.221 160.226 199.431 160.552L197.923 159.085L199.431 158.457C200.532 159.124 201.697 158.682 202.879 158.876C205.297 159.264 209.941 158.488 212.359 158.876C213.732 159.101 214.442 158.674 215.376 158.457C216.31 158.239 216.892 158.845 217.746 158.876Z" fill="black"/>
<path d="M386.669 165.581C386.909 163.974 384.93 164.758 384.515 163.485C385.137 163.423 385.863 163.579 386.454 163.485C387.108 163.377 387.763 163.26 388.609 163.066C389.766 162.803 392.296 164.378 393.349 163.485L396.581 163.695C396.693 164.145 395.504 165.883 395.073 166C394.379 166.186 391.282 166.07 390.333 166C390.181 165.992 390.061 165.596 389.902 165.581C388.856 165.48 387.723 165.65 386.669 165.581Z" fill="black"/>
</g>
</svg>
