<svg width="148" height="30" viewBox="0 0 148 30" fill="none" xmlns="http://www.w3.org/2000/svg">
<g clip-path="url(#clip0_2078_906)">
<path d="M130.783 29.4545H147.333V23.5713H136.893V17.9416H146.06V12.0584H136.893V6.42869H147.333V0.545484H130.783V29.4529V29.4545ZM112.028 29.4545H128.662V23.4045H118.222V0.545484H112.026V29.4529L112.028 29.4545ZM99.0421 12.1017V6.13509H100.358C102.946 6.13509 103.202 8.06835 103.202 9.1176C103.202 10.1669 102.947 12.1017 100.358 12.1017H99.0421ZM99.0421 23.8665V17.5646H100.995C103.286 17.5646 103.965 19.3294 103.965 20.7155C103.965 22.1017 103.286 23.8665 100.995 23.8665H99.0421ZM100.995 29.4545C106.979 29.4545 109.907 25.5896 109.907 20.799C109.907 18.4037 109.143 15.7565 106.638 14.2018C107.021 13.9499 108.972 12.6472 108.972 8.61383C108.972 3.94994 106.426 0.547088 100.484 0.547088H93.3968V29.4545H100.993H100.995ZM74.8552 0.545484V6.26023H79.9479V23.7398H74.8552V29.4545H91.151V23.7398H86.1442V6.26023H91.151V0.545484H74.8552ZM56.0138 8.5288V21.4696C56.0138 26.4704 59.0698 30 64.331 30C69.5923 30 72.6483 26.4704 72.6483 21.4696V12.8975H63.9065V18.6539H66.7081V20.6289C66.7081 21.8482 66.5801 24.2002 64.331 24.2002C62.082 24.2002 61.954 21.8466 61.954 20.6289V9.36948C61.954 8.15017 62.082 5.79817 64.331 5.79817C66.5801 5.79817 66.7081 8.15177 66.7081 9.36948V10.2102H72.6483V8.5288C72.6483 3.5296 69.5939 0 64.331 0C59.0681 0 56.0138 3.5296 56.0138 8.5304M37.3425 0.545484V29.4529H43.2827V14.9992L47.9509 29.4529H53.977V0.545484H48.0352V14.9992L43.3686 0.545484H37.3425ZM25.4184 19.0342L26.9885 6.59714L28.5586 19.0342H25.4184ZM17.9923 29.4545H24.0605L24.6552 24.412H29.3234L29.9181 29.4545H35.9863L31.741 0.545484H22.236L17.9923 29.4529V29.4545ZM0 6.51211H5.26127V29.4529H11.3716V6.51211H16.6329V0.545484H0V6.51211Z" fill="black"/>
</g>
<defs>
<clipPath id="clip0_2078_906">
<rect width="147.333" height="30" fill="white"/>
</clipPath>
</defs>
</svg>
